<svg width="26" height="26" viewBox="0 0 26 26" version="1.1" xmlns="http://www.w3.org/2000/svg" xmlns:xlink="http://www.w3.org/1999/xlink">
<title>gift-2</title>
<desc>Created using Figma</desc>
<g id="Canvas" transform="translate(-2288 -13)">
<g id="gift-2">
<g id="Group">
<g id="Vector">
<use xlink:href="#path0_stroke" transform="translate(2291.4 22.8)" fill="#C5DBDA"/>
</g>
<g id="Vector">
<use xlink:href="#path1_stroke" transform="translate(2289 18.8)" fill="#C5DBDA"/>
</g>
<g id="Vector">
<use xlink:href="#path2_stroke" transform="translate(2293.8 14)" fill="#C5DBDA"/>
</g>
<g id="Vector">
<use xlink:href="#path3_stroke" transform="translate(2301 14)" fill="#C5DBDA"/>
</g>
<g id="Vector">
<use xlink:href="#path4_stroke" transform="translate(2298.6 18.8)" fill="#C5DBDA"/>
</g>
</g>
</g>
</g>
<defs>
<path id="path0_stroke" d="M 20.2 0L 20.2 -1L 18.2 -1L 18.2 0L 20.2 0ZM 19.2 15.2L 19.2 16.2L 20.2 16.2L 20.2 15.2L 19.2 15.2ZM 0 15.2L -1 15.2L -1 16.2L 0 16.2L 0 15.2ZM 1 0L 1 -1L -1 -1L -1 0L 1 0ZM 18.2 0L 18.2 15.2L 20.2 15.2L 20.2 0L 18.2 0ZM 19.2 14.2L 0 14.2L 0 16.2L 19.2 16.2L 19.2 14.2ZM 1 15.2L 1 0L -1 0L -1 15.2L 1 15.2Z"/>
<path id="path1_stroke" d="M 0 0L 0 -1L -1 -1L -1 0L 0 0ZM 24 0L 25 0L 25 -1L 24 -1L 24 0ZM 24 4L 24 5L 25 5L 25 4L 24 4ZM 0 4L -1 4L -1 5L 0 5L 0 4ZM 0 1L 24 1L 24 -1L 0 -1L 0 1ZM 23 0L 23 4L 25 4L 25 0L 23 0ZM 24 3L 0 3L 0 5L 24 5L 24 3ZM 1 4L 1 0L -1 0L -1 4L 1 4Z"/>
<path id="path2_stroke" d="M 7.2 4.8L 7.2 5.8L 8.49366 5.8L 8.16774 4.54806L 7.2 4.8ZM 1 2.4C 1 1.62668 1.62668 1 2.4 1L 2.4 -1C 0.522115 -1 -1 0.522115 -1 2.4L 1 2.4ZM 2.4 1C 3.66183 1 4.59826 1.84277 5.28537 2.93314C 5.61873 3.46214 5.85868 3.99906 6.01562 4.40816C 6.09347 4.61112 6.14937 4.77861 6.18507 4.8926C 6.20289 4.94951 6.21559 4.99279 6.22339 5.02017C 6.22729 5.03385 6.22996 5.04353 6.23143 5.04893C 6.23216 5.05163 6.2326 5.05325 6.23273 5.05377C 6.2328 5.05402 6.2328 5.054 6.23272 5.0537C 6.23268 5.05355 6.23262 5.05332 6.23254 5.05303C 6.2325 5.05288 6.23243 5.05261 6.23241 5.05254C 6.23234 5.05225 6.23226 5.05194 7.2 4.8C 8.16774 4.54806 8.16765 4.54772 8.16756 4.54735C 8.16752 4.54721 8.16742 4.54682 8.16734 4.54653C 8.16719 4.54595 8.16702 4.54529 8.16682 4.54455C 8.16644 4.54309 8.16597 4.54133 8.16543 4.53928C 8.16434 4.53518 8.16292 4.52991 8.16118 4.52353C 8.15771 4.51076 8.15293 4.49349 8.14681 4.47202C 8.13457 4.42909 8.11695 4.36924 8.09367 4.2949C 8.04716 4.14639 7.9777 3.93889 7.88293 3.69184C 7.69462 3.20094 7.40027 2.53786 6.97743 1.86686C 6.15214 0.557231 4.68857 -1 2.4 -1L 2.4 1ZM 7.2 4.8C 7.2 3.8 7.19999 3.8 7.19996 3.8C 7.19993 3.8 7.19989 3.8 7.19984 3.8C 7.19979 3.8 7.19972 3.8 7.19964 3.8C 7.19956 3.8 7.19947 3.8 7.19937 3.8C 7.19926 3.8 7.19914 3.8 7.19901 3.8C 7.19888 3.8 7.19873 3.8 7.19858 3.8C 7.19842 3.8 7.19825 3.8 7.19807 3.8C 7.19788 3.8 7.19769 3.8 7.19748 3.8C 7.19727 3.8 7.19704 3.8 7.19681 3.8C 7.19657 3.8 7.19633 3.8 7.19607 3.8C 7.1958 3.8 7.19553 3.8 7.19524 3.8C 7.19496 3.8 7.19466 3.8 7.19435 3.8C 7.19403 3.8 7.19371 3.8 7.19337 3.8C 7.19303 3.8 7.19268 3.8 7.19232 3.8C 7.19196 3.8 7.19158 3.8 7.1912 3.8C 7.19081 3.8 7.19041 3.8 7.18999 3.8C 7.18958 3.8 7.18915 3.8 7.18871 3.8C 7.18828 3.8 7.18783 3.8 7.18736 3.8C 7.1869 3.8 7.18642 3.8 7.18593 3.8C 7.18544 3.8 7.18494 3.8 7.18443 3.8C 7.18392 3.8 7.18339 3.8 7.18285 3.8C 7.18231 3.8 7.18176 3.8 7.1812 3.8C 7.18064 3.8 7.18006 3.8 7.17948 3.8C 7.17889 3.8 7.17829 3.8 7.17768 3.8C 7.17706 3.8 7.17644 3.8 7.1758 3.8C 7.17517 3.8 7.17452 3.8 7.17386 3.8C 7.1732 3.8 7.17252 3.8 7.17184 3.8C 7.17115 3.8 7.17046 3.8 7.16975 3.8C 7.16904 3.8 7.16832 3.8 7.16758 3.8C 7.16685 3.8 7.1661 3.8 7.16535 3.8C 7.16459 3.8 7.16382 3.8 7.16304 3.8C 7.16226 3.8 7.16146 3.8 7.16066 3.8C 7.15985 3.8 7.15903 3.8 7.15821 3.8C 7.15738 3.8 7.15654 3.8 7.15568 3.8C 7.15483 3.8 7.15396 3.8 7.15309 3.8C 7.15221 3.8 7.15132 3.8 7.15042 3.8C 7.14952 3.8 7.14861 3.8 7.14769 3.8C 7.14677 3.8 7.14583 3.8 7.14488 3.8C 7.14394 3.8 7.14298 3.8 7.14201 3.8C 7.14104 3.8 7.14006 3.8 7.13906 3.8C 7.13807 3.8 7.13706 3.8 7.13605 3.8C 7.13503 3.8 7.134 3.8 7.13296 3.8C 7.13193 3.8 7.13087 3.8 7.12981 3.8C 7.12875 3.8 7.12768 3.8 7.12659 3.8C 7.12551 3.8 7.12441 3.8 7.1233 3.8C 7.12219 3.8 7.12107 3.8 7.11994 3.8C 7.11881 3.8 7.11767 3.8 7.11652 3.8C 7.11536 3.8 7.1142 3.8 7.11302 3.8C 7.11185 3.8 7.11066 3.8 7.10946 3.8C 7.10826 3.8 7.10705 3.8 7.10583 3.8C 7.10461 3.8 7.10338 3.8 7.10214 3.8C 7.1009 3.8 7.09964 3.8 7.09838 3.8C 7.09711 3.8 7.09583 3.8 7.09455 3.8C 7.09326 3.8 7.09196 3.8 7.09065 3.8C 7.08934 3.8 7.08802 3.8 7.08669 3.8C 7.08536 3.8 7.08402 3.8 7.08267 3.8C 7.08131 3.8 7.07995 3.8 7.07857 3.8C 7.0772 3.8 7.07581 3.8 7.07442 3.8C 7.07302 3.8 7.07161 3.8 7.0702 3.8C 7.06878 3.8 7.06735 3.8 7.06591 3.8C 7.06447 3.8 7.06302 3.8 7.06156 3.8C 7.0601 3.8 7.05862 3.8 7.05714 3.8C 7.05566 3.8 7.05417 3.8 7.05266 3.8C 7.05116 3.8 7.04964 3.8 7.04812 3.8C 7.0466 3.8 7.04506 3.8 7.04351 3.8C 7.04197 3.8 7.04041 3.8 7.03884 3.8C 7.03728 3.8 7.0357 3.8 7.03411 3.8C 7.03252 3.8 7.03093 3.8 7.02932 3.8C 7.02771 3.8 7.02609 3.8 7.02446 3.8C 7.02283 3.8 7.02119 3.8 7.01954 3.8C 7.01789 3.8 7.01623 3.8 7.01456 3.8C 7.01289 3.8 7.01121 3.8 7.00951 3.8C 7.00782 3.8 7.00612 3.8 7.00441 3.8C 7.0027 3.8 7.00098 3.8 6.99924 3.8C 6.99751 3.8 6.99577 3.8 6.99402 3.8C 6.99226 3.8 6.9905 3.8 6.98873 3.8C 6.98696 3.8 6.98517 3.8 6.98338 3.8C 6.98159 3.8 6.97979 3.8 6.97797 3.8C 6.97616 3.8 6.97434 3.8 6.97251 3.8C 6.97067 3.8 6.96883 3.8 6.96698 3.8C 6.96513 3.8 6.96326 3.8 6.96139 3.8C 6.95952 3.8 6.95764 3.8 6.95574 3.8C 6.95385 3.8 6.95195 3.8 6.95004 3.8C 6.94813 3.8 6.94621 3.8 6.94428 3.8C 6.94234 3.8 6.9404 3.8 6.93845 3.8C 6.9365 3.8 6.93454 3.8 6.93257 3.8C 6.9306 3.8 6.92862 3.8 6.92663 3.8C 6.92465 3.8 6.92265 3.8 6.92064 3.8C 6.91863 3.8 6.91661 3.8 6.91459 3.8C 6.91256 3.8 6.91052 3.8 6.90847 3.8C 6.90643 3.8 6.90437 3.8 6.90231 3.8C 6.90024 3.8 6.89817 3.8 6.89608 3.8C 6.894 3.8 6.89191 3.8 6.8898 3.8C 6.8877 3.8 6.88559 3.8 6.88347 3.8C 6.88135 3.8 6.87921 3.8 6.87707 3.8C 6.87493 3.8 6.87278 3.8 6.87063 3.8C 6.86847 3.8 6.8663 3.8 6.86412 3.8C 6.86195 3.8 6.85976 3.8 6.85756 3.8C 6.85537 3.8 6.85316 3.8 6.85095 3.8C 6.84874 3.8 6.84651 3.8 6.84428 3.8C 6.84205 3.8 6.83981 3.8 6.83756 3.8C 6.83531 3.8 6.83305 3.8 6.83078 3.8C 6.82852 3.8 6.82624 3.8 6.82395 3.8C 6.82167 3.8 6.81937 3.8 6.81707 3.8C 6.81476 3.8 6.81245 3.8 6.81013 3.8C 6.80781 3.8 6.80548 3.8 6.80314 3.8C 6.8008 3.8 6.79845 3.8 6.7961 3.8C 6.79374 3.8 6.79137 3.8 6.789 3.8C 6.78663 3.8 6.78424 3.8 6.78185 3.8C 6.77946 3.8 6.77706 3.8 6.77465 3.8C 6.77224 3.8 6.76982 3.8 6.7674 3.8C 6.76497 3.8 6.76254 3.8 6.76009 3.8C 6.75765 3.8 6.7552 3.8 6.75274 3.8C 6.75028 3.8 6.74781 3.8 6.74533 3.8C 6.74285 3.8 6.74037 3.8 6.73787 3.8C 6.73538 3.8 6.73288 3.8 6.73037 3.8C 6.72786 3.8 6.72534 3.8 6.72281 3.8C 6.72028 3.8 6.71774 3.8 6.7152 3.8C 6.71266 3.8 6.7101 3.8 6.70754 3.8C 6.70498 3.8 6.70241 3.8 6.69983 3.8C 6.69726 3.8 6.69467 3.8 6.69208 3.8C 6.68948 3.8 6.68688 3.8 6.68427 3.8C 6.68166 3.8 6.67904 3.8 6.67641 3.8C 6.67379 3.8 6.67115 3.8 6.66851 3.8C 6.66587 3.8 6.66322 3.8 6.66056 3.8C 6.6579 3.8 6.65523 3.8 6.65256 3.8C 6.64988 3.8 6.6472 3.8 6.64451 3.8C 6.64182 3.8 6.63912 3.8 6.63641 3.8C 6.63371 3.8 6.63099 3.8 6.62827 3.8C 6.62555 3.8 6.62282 3.8 6.62008 3.8C 6.61734 3.8 6.61459 3.8 6.61184 3.8C 6.60909 3.8 6.60633 3.8 6.60356 3.8C 6.60079 3.8 6.59801 3.8 6.59523 3.8C 6.59244 3.8 6.58965 3.8 6.58685 3.8C 6.58405 3.8 6.58124 3.8 6.57843 3.8C 6.57561 3.8 6.57279 3.8 6.56996 3.8C 6.56713 3.8 6.56429 3.8 6.56145 3.8C 6.5586 3.8 6.55575 3.8 6.55289 3.8C 6.55003 3.8 6.54716 3.8 6.54429 3.8C 6.54141 3.8 6.53853 3.8 6.53564 3.8C 6.53275 3.8 6.52985 3.8 6.52695 3.8C 6.52404 3.8 6.52113 3.8 6.51821 3.8C 6.51529 3.8 6.51237 3.8 6.50943 3.8C 6.5065 3.8 6.50356 3.8 6.50061 3.8C 6.49766 3.8 6.49471 3.8 6.49174 3.8C 6.48878 3.8 6.48581 3.8 6.48283 3.8C 6.47986 3.8 6.47687 3.8 6.47388 3.8C 6.47089 3.8 6.46789 3.8 6.46489 3.8C 6.46188 3.8 6.45887 3.8 6.45585 3.8C 6.45283 3.8 6.4498 3.8 6.44677 3.8C 6.44374 3.8 6.44069 3.8 6.43765 3.8C 6.4346 3.8 6.43155 3.8 6.42848 3.8C 6.42542 3.8 6.42236 3.8 6.41928 3.8C 6.41621 3.8 6.41312 3.8 6.41004 3.8C 6.40695 3.8 6.40385 3.8 6.40075 3.8C 6.39765 3.8 6.39454 3.8 6.39142 3.8C 6.38831 3.8 6.38518 3.8 6.38206 3.8C 6.37893 3.8 6.37579 3.8 6.37265 3.8C 6.36951 3.8 6.36636 3.8 6.3632 3.8C 6.36005 3.8 6.35688 3.8 6.35372 3.8C 6.35055 3.8 6.34737 3.8 6.34419 3.8C 6.34101 3.8 6.33782 3.8 6.33463 3.8C 6.33143 3.8 6.32823 3.8 6.32502 3.8C 6.32181 3.8 6.3186 3.8 6.31538 3.8C 6.31216 3.8 6.30893 3.8 6.3057 3.8C 6.30247 3.8 6.29923 3.8 6.29598 3.8C 6.29274 3.8 6.28948 3.8 6.28622 3.8C 6.28297 3.8 6.2797 3.8 6.27643 3.8C 6.27316 3.8 6.26988 3.8 6.2666 3.8C 6.26332 3.8 6.26003 3.8 6.25673 3.8C 6.25344 3.8 6.25014 3.8 6.24683 3.8C 6.24352 3.8 6.24021 3.8 6.23689 3.8C 6.23357 3.8 6.23024 3.8 6.22691 3.8C 6.22358 3.8 6.22024 3.8 6.21689 3.8C 6.21355 3.8 6.2102 3.8 6.20685 3.8C 6.20349 3.8 6.20013 3.8 6.19676 3.8C 6.19339 3.8 6.19002 3.8 6.18664 3.8C 6.18326 3.8 6.17988 3.8 6.17648 3.8C 6.17309 3.8 6.1697 3.8 6.16629 3.8C 6.16289 3.8 6.15948 3.8 6.15607 3.8C 6.15266 3.8 6.14924 3.8 6.14581 3.8C 6.14239 3.8 6.13896 3.8 6.13552 3.8C 6.13208 3.8 6.12864 3.8 6.12519 3.8C 6.12174 3.8 6.11829 3.8 6.11483 3.8C 6.11137 3.8 6.10791 3.8 6.10444 3.8C 6.10097 3.8 6.09749 3.8 6.09401 3.8C 6.09053 3.8 6.08704 3.8 6.08355 3.8C 6.08006 3.8 6.07656 3.8 6.07306 3.8C 6.06956 3.8 6.06605 3.8 6.06254 3.8C 6.05902 3.8 6.0555 3.8 6.05198 3.8C 6.04846 3.8 6.04493 3.8 6.04139 3.8C 6.03786 3.8 6.03432 3.8 6.03077 3.8C 6.02723 3.8 6.02368 3.8 6.02012 3.8C 6.01657 3.8 6.01301 3.8 6.00944 3.8C 6.00588 3.8 6.0023 3.8 5.99873 3.8C 5.99515 3.8 5.99157 3.8 5.98799 3.8C 5.9844 3.8 5.98081 3.8 5.97721 3.8C 5.97362 3.8 5.97002 3.8 5.96641 3.8C 5.9628 3.8 5.95919 3.8 5.95558 3.8C 5.95196 3.8 5.94834 3.8 5.94471 3.8C 5.94109 3.8 5.93746 3.8 5.93382 3.8C 5.93019 3.8 5.92655 3.8 5.9229 3.8C 5.91926 3.8 5.91561 3.8 5.91195 3.8C 5.9083 3.8 5.90464 3.8 5.90098 3.8C 5.89731 3.8 5.89364 3.8 5.88997 3.8C 5.8863 3.8 5.88262 3.8 5.87894 3.8C 5.87525 3.8 5.87157 3.8 5.86787 3.8C 5.86418 3.8 5.86049 3.8 5.85678 3.8C 5.85308 3.8 5.84938 3.8 5.84567 3.8C 5.84196 3.8 5.83824 3.8 5.83452 3.8C 5.8308 3.8 5.82708 3.8 5.82335 3.8C 5.81963 3.8 5.81589 3.8 5.81216 3.8C 5.80842 3.8 5.80468 3.8 5.80093 3.8C 5.79719 3.8 5.79344 3.8 5.78969 3.8C 5.78593 3.8 5.78217 3.8 5.77841 3.8C 5.77465 3.8 5.77088 3.8 5.76711 3.8C 5.76334 3.8 5.75956 3.8 5.75578 3.8C 5.75201 3.8 5.74822 3.8 5.74443 3.8C 5.74065 3.8 5.73686 3.8 5.73306 3.8C 5.72926 3.8 5.72546 3.8 5.72166 3.8C 5.71786 3.8 5.71405 3.8 5.71024 3.8C 5.70642 3.8 5.70261 3.8 5.69879 3.8C 5.69497 3.8 5.69114 3.8 5.68732 3.8C 5.68349 3.8 5.67966 3.8 5.67582 3.8C 5.67199 3.8 5.66815 3.8 5.6643 3.8C 5.66046 3.8 5.65661 3.8 5.65276 3.8C 5.64891 3.8 5.64506 3.8 5.6412 3.8C 5.63734 3.8 5.63348 3.8 5.62961 3.8C 5.62575 3.8 5.62188 3.8 5.618 3.8C 5.61413 3.8 5.61025 3.8 5.60637 3.8C 5.60249 3.8 5.59861 3.8 5.59472 3.8C 5.59083 3.8 5.58694 3.8 5.58305 3.8C 5.57915 3.8 5.57526 3.8 5.57135 3.8C 5.56745 3.8 5.56355 3.8 5.55964 3.8C 5.55573 3.8 5.55182 3.8 5.5479 3.8C 5.54399 3.8 5.54007 3.8 5.53614 3.8C 5.53222 3.8 5.5283 3.8 5.52437 3.8C 5.52044 3.8 5.51651 3.8 5.51257 3.8C 5.50864 3.8 5.5047 3.8 5.50075 3.8C 5.49681 3.8 5.49287 3.8 5.48892 3.8C 5.48497 3.8 5.48102 3.8 5.47706 3.8C 5.47311 3.8 5.46915 3.8 5.46519 3.8C 5.46123 3.8 5.45726 3.8 5.4533 3.8C 5.44933 3.8 5.44536 3.8 5.44138 3.8C 5.43741 3.8 5.43343 3.8 5.42945 3.8C 5.42547 3.8 5.42149 3.8 5.41751 3.8C 5.41352 3.8 5.40953 3.8 5.40554 3.8C 5.40155 3.8 5.39756 3.8 5.39356 3.8C 5.38956 3.8 5.38556 3.8 5.38156 3.8C 5.37756 3.8 5.37355 3.8 5.36954 3.8C 5.36553 3.8 5.36152 3.8 5.35751 3.8C 5.35349 3.8 5.34948 3.8 5.34546 3.8C 5.34144 3.8 5.33742 3.8 5.33339 3.8C 5.32937 3.8 5.32534 3.8 5.32131 3.8C 5.31728 3.8 5.31325 3.8 5.30921 3.8C 5.30518 3.8 5.30114 3.8 5.2971 3.8C 5.29306 3.8 5.28902 3.8 5.28497 3.8C 5.28093 3.8 5.27688 3.8 5.27283 3.8C 5.26878 3.8 5.26473 3.8 5.26067 3.8C 5.25662 3.8 5.25256 3.8 5.2485 3.8C 5.24444 3.8 5.24038 3.8 5.23631 3.8C 5.23225 3.8 5.22818 3.8 5.22411 3.8C 5.22004 3.8 5.21597 3.8 5.2119 3.8C 5.20782 3.8 5.20375 3.8 5.19967 3.8C 5.19559 3.8 5.19151 3.8 5.18743 3.8C 5.18335 3.8 5.17926 3.8 5.17518 3.8C 5.17109 3.8 5.167 3.8 5.16291 3.8C 5.15882 3.8 5.15473 3.8 5.15063 3.8C 5.14654 3.8 5.14244 3.8 5.13834 3.8C 5.13424 3.8 5.13014 3.8 5.12604 3.8C 5.12194 3.8 5.11783 3.8 5.11372 3.8C 5.10962 3.8 5.10551 3.8 5.1014 3.8C 5.09729 3.8 5.09318 3.8 5.08906 3.8C 5.08495 3.8 5.08083 3.8 5.07671 3.8C 5.0726 3.8 5.06848 3.8 5.06436 3.8C 5.06023 3.8 5.05611 3.8 5.05199 3.8C 5.04786 3.8 5.04374 3.8 5.03961 3.8C 5.03548 3.8 5.03135 3.8 5.02722 3.8C 5.02309 3.8 5.01896 3.8 5.01482 3.8C 5.01069 3.8 5.00655 3.8 5.00241 3.8C 4.99828 3.8 4.99414 3.8 4.99 3.8C 4.98586 3.8 4.98171 3.8 4.97757 3.8C 4.97343 3.8 4.96928 3.8 4.96514 3.8C 4.96099 3.8 4.95684 3.8 4.95269 3.8C 4.94854 3.8 4.94439 3.8 4.94024 3.8C 4.93609 3.8 4.93194 3.8 4.92778 3.8C 4.92363 3.8 4.91947 3.8 4.91532 3.8C 4.91116 3.8 4.907 3.8 4.90284 3.8C 4.89868 3.8 4.89452 3.8 4.89036 3.8C 4.8862 3.8 4.88204 3.8 4.87787 3.8C 4.87371 3.8 4.86955 3.8 4.86538 3.8C 4.86121 3.8 4.85705 3.8 4.85288 3.8C 4.84871 3.8 4.84454 3.8 4.84037 3.8C 4.8362 3.8 4.83203 3.8 4.82786 3.8C 4.82369 3.8 4.81951 3.8 4.81534 3.8C 4.81117 3.8 4.80699 3.8 4.80282 3.8C 4.79864 3.8 4.79447 3.8 4.79029 3.8C 4.78611 3.8 4.78193 3.8 4.77775 3.8C 4.77358 3.8 4.7694 3.8 4.76522 3.8C 4.76104 3.8 4.75685 3.8 4.75267 3.8C 4.74849 3.8 4.74431 3.8 4.74013 3.8C 4.73594 3.8 4.73176 3.8 4.72758 3.8C 4.72339 3.8 4.71921 3.8 4.71502 3.8C 4.71084 3.8 4.70665 3.8 4.70246 3.8C 4.69828 3.8 4.69409 3.8 4.6899 3.8C 4.68572 3.8 4.68153 3.8 4.67734 3.8C 4.67315 3.8 4.66896 3.8 4.66477 3.8C 4.66058 3.8 4.65639 3.8 4.6522 3.8C 4.64801 3.8 4.64382 3.8 4.63963 3.8C 4.63544 3.8 4.63125 3.8 4.62706 3.8C 4.62287 3.8 4.61868 3.8 4.61449 3.8C 4.61029 3.8 4.6061 3.8 4.60191 3.8C 4.59772 3.8 4.59353 3.8 4.58933 3.8C 4.58514 3.8 4.58095 3.8 4.57676 3.8C 4.57256 3.8 4.56837 3.8 4.56418 3.8C 4.55999 3.8 4.55579 3.8 4.5516 3.8C 4.54741 3.8 4.54322 3.8 4.53902 3.8C 4.53483 3.8 4.53064 3.8 4.52644 3.8C 4.52225 3.8 4.51806 3.8 4.51387 3.8C 4.50967 3.8 4.50548 3.8 4.50129 3.8C 4.4971 3.8 4.4929 3.8 4.48871 3.8C 4.48452 3.8 4.48033 3.8 4.47614 3.8C 4.47195 3.8 4.46775 3.8 4.46356 3.8C 4.45937 3.8 4.45518 3.8 4.45099 3.8C 4.4468 3.8 4.44261 3.8 4.43842 3.8C 4.43423 3.8 4.43004 3.8 4.42585 3.8C 4.42166 3.8 4.41748 3.8 4.41329 3.8C 4.4091 3.8 4.40491 3.8 4.40073 3.8C 4.39654 3.8 4.39235 3.8 4.38817 3.8C 4.38398 3.8 4.37979 3.8 4.37561 3.8C 4.37142 3.8 4.36724 3.8 4.36306 3.8C 4.35887 3.8 4.35469 3.8 4.35051 3.8C 4.34632 3.8 4.34214 3.8 4.33796 3.8C 4.33378 3.8 4.3296 3.8 4.32542 3.8C 4.32124 3.8 4.31706 3.8 4.31288 3.8C 4.3087 3.8 4.30453 3.8 4.30035 3.8C 4.29617 3.8 4.292 3.8 4.28782 3.8C 4.28365 3.8 4.27947 3.8 4.2753 3.8C 4.27113 3.8 4.26695 3.8 4.26278 3.8C 4.25861 3.8 4.25444 3.8 4.25027 3.8C 4.2461 3.8 4.24193 3.8 4.23777 3.8C 4.2336 3.8 4.22943 3.8 4.22527 3.8C 4.2211 3.8 4.21694 3.8 4.21278 3.8C 4.20861 3.8 4.20445 3.8 4.20029 3.8C 4.19613 3.8 4.19197 3.8 4.18781 3.8C 4.18365 3.8 4.1795 3.8 4.17534 3.8C 4.17118 3.8 4.16703 3.8 4.16288 3.8C 4.15872 3.8 4.15457 3.8 4.15042 3.8C 4.14627 3.8 4.14212 3.8 4.13797 3.8C 4.13382 3.8 4.12967 3.8 4.12553 3.8C 4.12138 3.8 4.11724 3.8 4.1131 3.8C 4.10896 3.8 4.10481 3.8 4.10067 3.8C 4.09654 3.8 4.0924 3.8 4.08826 3.8C 4.08412 3.8 4.07999 3.8 4.07586 3.8C 4.07172 3.8 4.06759 3.8 4.06346 3.8C 4.05933 3.8 4.0552 3.8 4.05107 3.8C 4.04695 3.8 4.04282 3.8 4.0387 3.8C 4.03457 3.8 4.03045 3.8 4.02633 3.8C 4.02221 3.8 4.01809 3.8 4.01398 3.8C 4.00986 3.8 4.00575 3.8 4.00163 3.8C 3.99752 3.8 3.99341 3.8 3.9893 3.8C 3.98519 3.8 3.98108 3.8 3.97698 3.8C 3.97287 3.8 3.96877 3.8 3.96467 3.8C 3.96057 3.8 3.95647 3.8 3.95237 3.8C 3.94827 3.8 3.94417 3.8 3.94008 3.8C 3.93599 3.8 3.9319 3.8 3.92781 3.8C 3.92372 3.8 3.91963 3.8 3.91554 3.8C 3.91146 3.8 3.90738 3.8 3.90329 3.8C 3.89921 3.8 3.89513 3.8 3.89106 3.8C 3.88698 3.8 3.88291 3.8 3.87883 3.8C 3.87476 3.8 3.87069 3.8 3.86662 3.8C 3.86256 3.8 3.85849 3.8 3.85443 3.8C 3.85036 3.8 3.8463 3.8 3.84225 3.8C 3.83819 3.8 3.83413 3.8 3.83008 3.8C 3.82602 3.8 3.82197 3.8 3.81792 3.8C 3.81388 3.8 3.80983 3.8 3.80579 3.8C 3.80174 3.8 3.7977 3.8 3.79366 3.8C 3.78962 3.8 3.78559 3.8 3.78155 3.8C 3.77752 3.8 3.77349 3.8 3.76946 3.8C 3.76543 3.8 3.76141 3.8 3.75738 3.8C 3.75336 3.8 3.74934 3.8 3.74532 3.8C 3.7413 3.8 3.73729 3.8 3.73328 3.8C 3.72927 3.8 3.72526 3.8 3.72125 3.8C 3.71724 3.8 3.71324 3.8 3.70924 3.8C 3.70524 3.8 3.70124 3.8 3.69724 3.8C 3.69325 3.8 3.68925 3.8 3.68527 3.8C 3.68128 3.8 3.67729 3.8 3.67331 3.8C 3.66932 3.8 3.66534 3.8 3.66136 3.8C 3.65739 3.8 3.65341 3.8 3.64944 3.8C 3.64547 3.8 3.6415 3.8 3.63753 3.8C 3.63357 3.8 3.62961 3.8 3.62565 3.8C 3.62169 3.8 3.61773 3.8 3.61378 3.8C 3.60982 3.8 3.60587 3.8 3.60193 3.8C 3.59798 3.8 3.59404 3.8 3.5901 3.8C 3.58616 3.8 3.58222 3.8 3.57829 3.8C 3.57435 3.8 3.57042 3.8 3.5665 3.8C 3.56257 3.8 3.55864 3.8 3.55472 3.8C 3.5508 3.8 3.54689 3.8 3.54297 3.8C 3.53906 3.8 3.53515 3.8 3.53124 3.8C 3.52734 3.8 3.52343 3.8 3.51953 3.8C 3.51563 3.8 3.51174 3.8 3.50785 3.8C 3.50395 3.8 3.50006 3.8 3.49618 3.8C 3.49229 3.8 3.48841 3.8 3.48453 3.8C 3.48065 3.8 3.47678 3.8 3.47291 3.8C 3.46904 3.8 3.46517 3.8 3.46131 3.8C 3.45744 3.8 3.45358 3.8 3.44973 3.8C 3.44587 3.8 3.44202 3.8 3.43817 3.8C 3.43432 3.8 3.43048 3.8 3.42664 3.8C 3.4228 3.8 3.41896 3.8 3.41513 3.8C 3.41129 3.8 3.40746 3.8 3.40364 3.8C 3.39981 3.8 3.39599 3.8 3.39217 3.8C 3.38836 3.8 3.38454 3.8 3.38073 3.8C 3.37692 3.8 3.37312 3.8 3.36932 3.8C 3.36552 3.8 3.36172 3.8 3.35792 3.8C 3.35413 3.8 3.35034 3.8 3.34656 3.8C 3.34277 3.8 3.33899 3.8 3.33521 3.8C 3.33144 3.8 3.32766 3.8 3.3239 3.8C 3.32013 3.8 3.31636 3.8 3.3126 3.8C 3.30884 3.8 3.30509 3.8 3.30134 3.8C 3.29759 3.8 3.29384 3.8 3.2901 3.8C 3.28635 3.8 3.28261 3.8 3.27888 3.8C 3.27515 3.8 3.27142 3.8 3.26769 3.8C 3.26397 3.8 3.26025 3.8 3.25653 3.8C 3.25281 3.8 3.2491 3.8 3.24539 3.8C 3.24169 3.8 3.23798 3.8 3.23429 3.8C 3.23059 3.8 3.22689 3.8 3.22321 3.8C 3.21952 3.8 3.21583 3.8 3.21215 3.8C 3.20847 3.8 3.2048 3.8 3.20113 3.8C 3.19746 3.8 3.19379 3.8 3.19013 3.8C 3.18647 3.8 3.18281 3.8 3.17916 3.8C 3.17551 3.8 3.17186 3.8 3.16822 3.8C 3.16458 3.8 3.16094 3.8 3.15731 3.8C 3.15367 3.8 3.15005 3.8 3.14642 3.8C 3.1428 3.8 3.13918 3.8 3.13557 3.8C 3.13196 3.8 3.12835 3.8 3.12475 3.8C 3.12114 3.8 3.11755 3.8 3.11395 3.8C 3.11036 3.8 3.10677 3.8 3.10319 3.8C 3.09961 3.8 3.09603 3.8 3.09246 3.8C 3.08888 3.8 3.08531 3.8 3.08175 3.8C 3.07819 3.8 3.07463 3.8 3.07108 3.8C 3.06753 3.8 3.06398 3.8 3.06044 3.8C 3.0569 3.8 3.05336 3.8 3.04983 3.8C 3.0463 3.8 3.04277 3.8 3.03925 3.8C 3.03573 3.8 3.03221 3.8 3.0287 3.8C 3.02519 3.8 3.02169 3.8 3.01819 3.8C 3.01469 3.8 3.0112 3.8 3.00771 3.8C 3.00422 3.8 3.00074 3.8 2.99726 3.8C 2.99378 3.8 2.99031 3.8 2.98684 3.8C 2.98338 3.8 2.97991 3.8 2.97646 3.8C 2.973 3.8 2.96955 3.8 2.96611 3.8C 2.96266 3.8 2.95923 3.8 2.95579 3.8C 2.95236 3.8 2.94893 3.8 2.94551 3.8C 2.94209 3.8 2.93867 3.8 2.93526 3.8C 2.93185 3.8 2.92845 3.8 2.92505 3.8C 2.92165 3.8 2.91825 3.8 2.91487 3.8C 2.91148 3.8 2.9081 3.8 2.90472 3.8C 2.90135 3.8 2.89798 3.8 2.89461 3.8C 2.89125 3.8 2.88789 3.8 2.88454 3.8C 2.88119 3.8 2.87784 3.8 2.8745 3.8C 2.87116 3.8 2.86783 3.8 2.8645 3.8C 2.86117 3.8 2.85785 3.8 2.85453 3.8C 2.85121 3.8 2.8479 3.8 2.8446 3.8C 2.8413 3.8 2.838 3.8 2.83471 3.8C 2.83141 3.8 2.82813 3.8 2.82485 3.8C 2.82157 3.8 2.8183 3.8 2.81503 3.8C 2.81176 3.8 2.8085 3.8 2.80525 3.8C 2.80199 3.8 2.79874 3.8 2.7955 3.8C 2.79226 3.8 2.78902 3.8 2.7858 3.8C 2.78257 3.8 2.77934 3.8 2.77613 3.8C 2.77291 3.8 2.7697 3.8 2.7665 3.8C 2.76329 3.8 2.7601 3.8 2.7569 3.8C 2.75371 3.8 2.75053 3.8 2.74735 3.8C 2.74417 3.8 2.741 3.8 2.73784 3.8C 2.73467 3.8 2.73152 3.8 2.72836 3.8C 2.72521 3.8 2.72207 3.8 2.71893 3.8C 2.71579 3.8 2.71266 3.8 2.70953 3.8C 2.70641 3.8 2.70329 3.8 2.70018 3.8C 2.69707 3.8 2.69396 3.8 2.69086 3.8C 2.68777 3.8 2.68468 3.8 2.68159 3.8C 2.67851 3.8 2.67543 3.8 2.67236 3.8C 2.66929 3.8 2.66622 3.8 2.66317 3.8C 2.66011 3.8 2.65706 3.8 2.65402 3.8C 2.65097 3.8 2.64794 3.8 2.64491 3.8C 2.64188 3.8 2.63886 3.8 2.63584 3.8C 2.63283 3.8 2.62982 3.8 2.62682 3.8C 2.62382 3.8 2.62082 3.8 2.61783 3.8C 2.61485 3.8 2.61187 3.8 2.60889 3.8C 2.60592 3.8 2.60296 3.8 2.6 3.8C 2.59704 3.8 2.59409 3.8 2.59114 3.8C 2.5882 3.8 2.58526 3.8 2.58233 3.8C 2.5794 3.8 2.57648 3.8 2.57357 3.8C 2.57065 3.8 2.56775 3.8 2.56484 3.8C 2.56194 3.8 2.55905 3.8 2.55617 3.8C 2.55328 3.8 2.5504 3.8 2.54753 3.8C 2.54466 3.8 2.5418 3.8 2.53894 3.8C 2.53609 3.8 2.53324 3.8 2.5304 3.8C 2.52756 3.8 2.52472 3.8 2.5219 3.8C 2.51907 3.8 2.51626 3.8 2.51345 3.8C 2.51064 3.8 2.50783 3.8 2.50504 3.8C 2.50224 3.8 2.49945 3.8 2.49668 3.8C 2.4939 3.8 2.49112 3.8 2.48836 3.8C 2.48559 3.8 2.48284 3.8 2.48009 3.8C 2.47734 3.8 2.4746 3.8 2.47187 3.8C 2.46913 3.8 2.46641 3.8 2.46369 3.8C 2.46097 3.8 2.45826 3.8 2.45556 3.8C 2.45286 3.8 2.45017 3.8 2.44748 3.8C 2.44479 3.8 2.44212 3.8 2.43945 3.8C 2.43678 3.8 2.43411 3.8 2.43146 3.8C 2.42881 3.8 2.42616 3.8 2.42352 3.8C 2.42088 3.8 2.41825 3.8 2.41563 3.8C 2.41301 3.8 2.4104 3.8 2.40779 3.8C 2.40519 3.8 2.40259 3.8 2.4 3.8L 2.4 5.8C 2.40259 5.8 2.40519 5.8 2.40779 5.8C 2.4104 5.8 2.41301 5.8 2.41563 5.8C 2.41825 5.8 2.42088 5.8 2.42352 5.8C 2.42616 5.8 2.42881 5.8 2.43146 5.8C 2.43411 5.8 2.43678 5.8 2.43945 5.8C 2.44212 5.8 2.44479 5.8 2.44748 5.8C 2.45017 5.8 2.45286 5.8 2.45556 5.8C 2.45826 5.8 2.46097 5.8 2.46369 5.8C 2.46641 5.8 2.46913 5.8 2.47187 5.8C 2.4746 5.8 2.47734 5.8 2.48009 5.8C 2.48284 5.8 2.48559 5.8 2.48836 5.8C 2.49112 5.8 2.4939 5.8 2.49668 5.8C 2.49945 5.8 2.50224 5.8 2.50504 5.8C 2.50783 5.8 2.51064 5.8 2.51345 5.8C 2.51626 5.8 2.51907 5.8 2.5219 5.8C 2.52472 5.8 2.52756 5.8 2.5304 5.8C 2.53324 5.8 2.53609 5.8 2.53894 5.8C 2.5418 5.8 2.54466 5.8 2.54753 5.8C 2.5504 5.8 2.55328 5.8 2.55617 5.8C 2.55905 5.8 2.56194 5.8 2.56484 5.8C 2.56775 5.8 2.57065 5.8 2.57357 5.8C 2.57648 5.8 2.5794 5.8 2.58233 5.8C 2.58526 5.8 2.5882 5.8 2.59114 5.8C 2.59409 5.8 2.59704 5.8 2.6 5.8C 2.60296 5.8 2.60592 5.8 2.60889 5.8C 2.61187 5.8 2.61485 5.8 2.61783 5.8C 2.62082 5.8 2.62382 5.8 2.62682 5.8C 2.62982 5.8 2.63283 5.8 2.63584 5.8C 2.63886 5.8 2.64188 5.8 2.64491 5.8C 2.64794 5.8 2.65097 5.8 2.65402 5.8C 2.65706 5.8 2.66011 5.8 2.66317 5.8C 2.66622 5.8 2.66929 5.8 2.67236 5.8C 2.67543 5.8 2.67851 5.8 2.68159 5.8C 2.68468 5.8 2.68777 5.8 2.69086 5.8C 2.69396 5.8 2.69707 5.8 2.70018 5.8C 2.70329 5.8 2.70641 5.8 2.70953 5.8C 2.71266 5.8 2.71579 5.8 2.71893 5.8C 2.72207 5.8 2.72521 5.8 2.72836 5.8C 2.73152 5.8 2.73467 5.8 2.73784 5.8C 2.741 5.8 2.74417 5.8 2.74735 5.8C 2.75053 5.8 2.75371 5.8 2.7569 5.8C 2.7601 5.8 2.76329 5.8 2.7665 5.8C 2.7697 5.8 2.77291 5.8 2.77613 5.8C 2.77934 5.8 2.78257 5.8 2.7858 5.8C 2.78902 5.8 2.79226 5.8 2.7955 5.8C 2.79874 5.8 2.80199 5.8 2.80525 5.8C 2.8085 5.8 2.81176 5.8 2.81503 5.8C 2.8183 5.8 2.82157 5.8 2.82485 5.8C 2.82813 5.8 2.83141 5.8 2.83471 5.8C 2.838 5.8 2.8413 5.8 2.8446 5.8C 2.8479 5.8 2.85121 5.8 2.85453 5.8C 2.85785 5.8 2.86117 5.8 2.8645 5.8C 2.86783 5.8 2.87116 5.8 2.8745 5.8C 2.87784 5.8 2.88119 5.8 2.88454 5.8C 2.88789 5.8 2.89125 5.8 2.89461 5.8C 2.89798 5.8 2.90135 5.8 2.90472 5.8C 2.9081 5.8 2.91148 5.8 2.91487 5.8C 2.91825 5.8 2.92165 5.8 2.92505 5.8C 2.92845 5.8 2.93185 5.8 2.93526 5.8C 2.93867 5.8 2.94209 5.8 2.94551 5.8C 2.94893 5.8 2.95236 5.8 2.95579 5.8C 2.95923 5.8 2.96266 5.8 2.96611 5.8C 2.96955 5.8 2.973 5.8 2.97646 5.8C 2.97991 5.8 2.98338 5.8 2.98684 5.8C 2.99031 5.8 2.99378 5.8 2.99726 5.8C 3.00074 5.8 3.00422 5.8 3.00771 5.8C 3.0112 5.8 3.01469 5.8 3.01819 5.8C 3.02169 5.8 3.02519 5.8 3.0287 5.8C 3.03221 5.8 3.03573 5.8 3.03925 5.8C 3.04277 5.8 3.0463 5.8 3.04983 5.8C 3.05336 5.8 3.0569 5.8 3.06044 5.8C 3.06398 5.8 3.06753 5.8 3.07108 5.8C 3.07463 5.8 3.07819 5.8 3.08175 5.8C 3.08531 5.8 3.08888 5.8 3.09246 5.8C 3.09603 5.8 3.09961 5.8 3.10319 5.8C 3.10677 5.8 3.11036 5.8 3.11395 5.8C 3.11755 5.8 3.12114 5.8 3.12475 5.8C 3.12835 5.8 3.13196 5.8 3.13557 5.8C 3.13918 5.8 3.1428 5.8 3.14642 5.8C 3.15005 5.8 3.15367 5.8 3.15731 5.8C 3.16094 5.8 3.16458 5.8 3.16822 5.8C 3.17186 5.8 3.17551 5.8 3.17916 5.8C 3.18281 5.8 3.18647 5.8 3.19013 5.8C 3.19379 5.8 3.19746 5.8 3.20113 5.8C 3.2048 5.8 3.20847 5.8 3.21215 5.8C 3.21583 5.8 3.21952 5.8 3.22321 5.8C 3.22689 5.8 3.23059 5.8 3.23429 5.8C 3.23798 5.8 3.24169 5.8 3.24539 5.8C 3.2491 5.8 3.25281 5.8 3.25653 5.8C 3.26025 5.8 3.26397 5.8 3.26769 5.8C 3.27142 5.8 3.27515 5.8 3.27888 5.8C 3.28261 5.8 3.28635 5.8 3.2901 5.8C 3.29384 5.8 3.29759 5.8 3.30134 5.8C 3.30509 5.8 3.30884 5.8 3.3126 5.8C 3.31636 5.8 3.32013 5.8 3.3239 5.8C 3.32766 5.8 3.33144 5.8 3.33521 5.8C 3.33899 5.8 3.34277 5.8 3.34656 5.8C 3.35034 5.8 3.35413 5.8 3.35792 5.8C 3.36172 5.8 3.36552 5.8 3.36932 5.8C 3.37312 5.8 3.37692 5.8 3.38073 5.8C 3.38454 5.8 3.38836 5.8 3.39217 5.8C 3.39599 5.8 3.39981 5.8 3.40364 5.8C 3.40746 5.8 3.41129 5.8 3.41513 5.8C 3.41896 5.8 3.4228 5.8 3.42664 5.8C 3.43048 5.8 3.43432 5.8 3.43817 5.8C 3.44202 5.8 3.44587 5.8 3.44973 5.8C 3.45358 5.8 3.45744 5.8 3.46131 5.8C 3.46517 5.8 3.46904 5.8 3.47291 5.8C 3.47678 5.8 3.48065 5.8 3.48453 5.8C 3.48841 5.8 3.49229 5.8 3.49618 5.8C 3.50006 5.8 3.50395 5.8 3.50785 5.8C 3.51174 5.8 3.51563 5.8 3.51953 5.8C 3.52343 5.8 3.52734 5.8 3.53124 5.8C 3.53515 5.8 3.53906 5.8 3.54297 5.8C 3.54689 5.8 3.5508 5.8 3.55472 5.8C 3.55864 5.8 3.56257 5.8 3.5665 5.8C 3.57042 5.8 3.57435 5.8 3.57829 5.8C 3.58222 5.8 3.58616 5.8 3.5901 5.8C 3.59404 5.8 3.59798 5.8 3.60193 5.8C 3.60587 5.8 3.60982 5.8 3.61378 5.8C 3.61773 5.8 3.62169 5.8 3.62565 5.8C 3.62961 5.8 3.63357 5.8 3.63753 5.8C 3.6415 5.8 3.64547 5.8 3.64944 5.8C 3.65341 5.8 3.65739 5.8 3.66136 5.8C 3.66534 5.8 3.66932 5.8 3.67331 5.8C 3.67729 5.8 3.68128 5.8 3.68527 5.8C 3.68925 5.8 3.69325 5.8 3.69724 5.8C 3.70124 5.8 3.70524 5.8 3.70924 5.8C 3.71324 5.8 3.71724 5.8 3.72125 5.8C 3.72526 5.8 3.72927 5.8 3.73328 5.8C 3.73729 5.8 3.7413 5.8 3.74532 5.8C 3.74934 5.8 3.75336 5.8 3.75738 5.8C 3.76141 5.8 3.76543 5.8 3.76946 5.8C 3.77349 5.8 3.77752 5.8 3.78155 5.8C 3.78559 5.8 3.78962 5.8 3.79366 5.8C 3.7977 5.8 3.80174 5.8 3.80579 5.8C 3.80983 5.8 3.81388 5.8 3.81792 5.8C 3.82197 5.8 3.82602 5.8 3.83008 5.8C 3.83413 5.8 3.83819 5.8 3.84225 5.8C 3.8463 5.8 3.85036 5.8 3.85443 5.8C 3.85849 5.8 3.86256 5.8 3.86662 5.8C 3.87069 5.8 3.87476 5.8 3.87883 5.8C 3.88291 5.8 3.88698 5.8 3.89106 5.8C 3.89513 5.8 3.89921 5.8 3.90329 5.8C 3.90738 5.8 3.91146 5.8 3.91554 5.8C 3.91963 5.8 3.92372 5.8 3.92781 5.8C 3.9319 5.8 3.93599 5.8 3.94008 5.8C 3.94417 5.8 3.94827 5.8 3.95237 5.8C 3.95647 5.8 3.96057 5.8 3.96467 5.8C 3.96877 5.8 3.97287 5.8 3.97698 5.8C 3.98108 5.8 3.98519 5.8 3.9893 5.8C 3.99341 5.8 3.99752 5.8 4.00163 5.8C 4.00575 5.8 4.00986 5.8 4.01398 5.8C 4.01809 5.8 4.02221 5.8 4.02633 5.8C 4.03045 5.8 4.03457 5.8 4.0387 5.8C 4.04282 5.8 4.04695 5.8 4.05107 5.8C 4.0552 5.8 4.05933 5.8 4.06346 5.8C 4.06759 5.8 4.07172 5.8 4.07586 5.8C 4.07999 5.8 4.08412 5.8 4.08826 5.8C 4.0924 5.8 4.09654 5.8 4.10067 5.8C 4.10481 5.8 4.10896 5.8 4.1131 5.8C 4.11724 5.8 4.12138 5.8 4.12553 5.8C 4.12967 5.8 4.13382 5.8 4.13797 5.8C 4.14212 5.8 4.14627 5.8 4.15042 5.8C 4.15457 5.8 4.15872 5.8 4.16288 5.8C 4.16703 5.8 4.17118 5.8 4.17534 5.8C 4.1795 5.8 4.18365 5.8 4.18781 5.8C 4.19197 5.8 4.19613 5.8 4.20029 5.8C 4.20445 5.8 4.20861 5.8 4.21278 5.8C 4.21694 5.8 4.2211 5.8 4.22527 5.8C 4.22943 5.8 4.2336 5.8 4.23777 5.8C 4.24193 5.8 4.2461 5.8 4.25027 5.8C 4.25444 5.8 4.25861 5.8 4.26278 5.8C 4.26695 5.8 4.27113 5.8 4.2753 5.8C 4.27947 5.8 4.28365 5.8 4.28782 5.8C 4.292 5.8 4.29617 5.8 4.30035 5.8C 4.30453 5.8 4.3087 5.8 4.31288 5.8C 4.31706 5.8 4.32124 5.8 4.32542 5.8C 4.3296 5.8 4.33378 5.8 4.33796 5.8C 4.34214 5.8 4.34632 5.8 4.35051 5.8C 4.35469 5.8 4.35887 5.8 4.36306 5.8C 4.36724 5.8 4.37142 5.8 4.37561 5.8C 4.37979 5.8 4.38398 5.8 4.38817 5.8C 4.39235 5.8 4.39654 5.8 4.40073 5.8C 4.40491 5.8 4.4091 5.8 4.41329 5.8C 4.41748 5.8 4.42166 5.8 4.42585 5.8C 4.43004 5.8 4.43423 5.8 4.43842 5.8C 4.44261 5.8 4.4468 5.8 4.45099 5.8C 4.45518 5.8 4.45937 5.8 4.46356 5.8C 4.46775 5.8 4.47195 5.8 4.47614 5.8C 4.48033 5.8 4.48452 5.8 4.48871 5.8C 4.4929 5.8 4.4971 5.8 4.50129 5.8C 4.50548 5.8 4.50967 5.8 4.51387 5.8C 4.51806 5.8 4.52225 5.8 4.52644 5.8C 4.53064 5.8 4.53483 5.8 4.53902 5.8C 4.54322 5.8 4.54741 5.8 4.5516 5.8C 4.55579 5.8 4.55999 5.8 4.56418 5.8C 4.56837 5.8 4.57256 5.8 4.57676 5.8C 4.58095 5.8 4.58514 5.8 4.58933 5.8C 4.59353 5.8 4.59772 5.8 4.60191 5.8C 4.6061 5.8 4.61029 5.8 4.61449 5.8C 4.61868 5.8 4.62287 5.8 4.62706 5.8C 4.63125 5.8 4.63544 5.8 4.63963 5.8C 4.64382 5.8 4.64801 5.8 4.6522 5.8C 4.65639 5.8 4.66058 5.8 4.66477 5.8C 4.66896 5.8 4.67315 5.8 4.67734 5.8C 4.68153 5.8 4.68572 5.8 4.6899 5.8C 4.69409 5.8 4.69828 5.8 4.70246 5.8C 4.70665 5.8 4.71084 5.8 4.71502 5.8C 4.71921 5.8 4.72339 5.8 4.72758 5.8C 4.73176 5.8 4.73594 5.8 4.74013 5.8C 4.74431 5.8 4.74849 5.8 4.75267 5.8C 4.75685 5.8 4.76104 5.8 4.76522 5.8C 4.7694 5.8 4.77358 5.8 4.77775 5.8C 4.78193 5.8 4.78611 5.8 4.79029 5.8C 4.79447 5.8 4.79864 5.8 4.80282 5.8C 4.80699 5.8 4.81117 5.8 4.81534 5.8C 4.81951 5.8 4.82369 5.8 4.82786 5.8C 4.83203 5.8 4.8362 5.8 4.84037 5.8C 4.84454 5.8 4.84871 5.8 4.85288 5.8C 4.85705 5.8 4.86121 5.8 4.86538 5.8C 4.86955 5.8 4.87371 5.8 4.87787 5.8C 4.88204 5.8 4.8862 5.8 4.89036 5.8C 4.89452 5.8 4.89868 5.8 4.90284 5.8C 4.907 5.8 4.91116 5.8 4.91532 5.8C 4.91947 5.8 4.92363 5.8 4.92778 5.8C 4.93194 5.8 4.93609 5.8 4.94024 5.8C 4.94439 5.8 4.94854 5.8 4.95269 5.8C 4.95684 5.8 4.96099 5.8 4.96514 5.8C 4.96928 5.8 4.97343 5.8 4.97757 5.8C 4.98171 5.8 4.98586 5.8 4.99 5.8C 4.99414 5.8 4.99828 5.8 5.00241 5.8C 5.00655 5.8 5.01069 5.8 5.01482 5.8C 5.01896 5.8 5.02309 5.8 5.02722 5.8C 5.03135 5.8 5.03548 5.8 5.03961 5.8C 5.04374 5.8 5.04786 5.8 5.05199 5.8C 5.05611 5.8 5.06023 5.8 5.06436 5.8C 5.06848 5.8 5.0726 5.8 5.07671 5.8C 5.08083 5.8 5.08495 5.8 5.08906 5.8C 5.09318 5.8 5.09729 5.8 5.1014 5.8C 5.10551 5.8 5.10962 5.8 5.11372 5.8C 5.11783 5.8 5.12194 5.8 5.12604 5.8C 5.13014 5.8 5.13424 5.8 5.13834 5.8C 5.14244 5.8 5.14654 5.8 5.15063 5.8C 5.15473 5.8 5.15882 5.8 5.16291 5.8C 5.167 5.8 5.17109 5.8 5.17518 5.8C 5.17926 5.8 5.18335 5.8 5.18743 5.8C 5.19151 5.8 5.19559 5.8 5.19967 5.8C 5.20375 5.8 5.20782 5.8 5.2119 5.8C 5.21597 5.8 5.22004 5.8 5.22411 5.8C 5.22818 5.8 5.23225 5.8 5.23631 5.8C 5.24038 5.8 5.24444 5.8 5.2485 5.8C 5.25256 5.8 5.25662 5.8 5.26067 5.8C 5.26473 5.8 5.26878 5.8 5.27283 5.8C 5.27688 5.8 5.28093 5.8 5.28497 5.8C 5.28902 5.8 5.29306 5.8 5.2971 5.8C 5.30114 5.8 5.30518 5.8 5.30921 5.8C 5.31325 5.8 5.31728 5.8 5.32131 5.8C 5.32534 5.8 5.32937 5.8 5.33339 5.8C 5.33742 5.8 5.34144 5.8 5.34546 5.8C 5.34948 5.8 5.35349 5.8 5.35751 5.8C 5.36152 5.8 5.36553 5.8 5.36954 5.8C 5.37355 5.8 5.37756 5.8 5.38156 5.8C 5.38556 5.8 5.38956 5.8 5.39356 5.8C 5.39756 5.8 5.40155 5.8 5.40554 5.8C 5.40953 5.8 5.41352 5.8 5.41751 5.8C 5.42149 5.8 5.42547 5.8 5.42945 5.8C 5.43343 5.8 5.43741 5.8 5.44138 5.8C 5.44536 5.8 5.44933 5.8 5.4533 5.8C 5.45726 5.8 5.46123 5.8 5.46519 5.8C 5.46915 5.8 5.47311 5.8 5.47706 5.8C 5.48102 5.8 5.48497 5.8 5.48892 5.8C 5.49287 5.8 5.49681 5.8 5.50075 5.8C 5.5047 5.8 5.50864 5.8 5.51257 5.8C 5.51651 5.8 5.52044 5.8 5.52437 5.8C 5.5283 5.8 5.53222 5.8 5.53614 5.8C 5.54007 5.8 5.54399 5.8 5.5479 5.8C 5.55182 5.8 5.55573 5.8 5.55964 5.8C 5.56355 5.8 5.56745 5.8 5.57135 5.8C 5.57526 5.8 5.57915 5.8 5.58305 5.8C 5.58694 5.8 5.59083 5.8 5.59472 5.8C 5.59861 5.8 5.60249 5.8 5.60637 5.8C 5.61025 5.8 5.61413 5.8 5.618 5.8C 5.62188 5.8 5.62575 5.8 5.62961 5.8C 5.63348 5.8 5.63734 5.8 5.6412 5.8C 5.64506 5.8 5.64891 5.8 5.65276 5.8C 5.65661 5.8 5.66046 5.8 5.6643 5.8C 5.66815 5.8 5.67199 5.8 5.67582 5.8C 5.67966 5.8 5.68349 5.8 5.68732 5.8C 5.69114 5.8 5.69497 5.8 5.69879 5.8C 5.70261 5.8 5.70642 5.8 5.71024 5.8C 5.71405 5.8 5.71786 5.8 5.72166 5.8C 5.72546 5.8 5.72926 5.8 5.73306 5.8C 5.73686 5.8 5.74065 5.8 5.74443 5.8C 5.74822 5.8 5.75201 5.8 5.75578 5.8C 5.75956 5.8 5.76334 5.8 5.76711 5.8C 5.77088 5.8 5.77465 5.8 5.77841 5.8C 5.78217 5.8 5.78593 5.8 5.78969 5.8C 5.79344 5.8 5.79719 5.8 5.80093 5.8C 5.80468 5.8 5.80842 5.8 5.81216 5.8C 5.81589 5.8 5.81963 5.8 5.82335 5.8C 5.82708 5.8 5.8308 5.8 5.83452 5.8C 5.83824 5.8 5.84196 5.8 5.84567 5.8C 5.84938 5.8 5.85308 5.8 5.85678 5.8C 5.86049 5.8 5.86418 5.8 5.86787 5.8C 5.87157 5.8 5.87525 5.8 5.87894 5.8C 5.88262 5.8 5.8863 5.8 5.88997 5.8C 5.89364 5.8 5.89731 5.8 5.90098 5.8C 5.90464 5.8 5.9083 5.8 5.91195 5.8C 5.91561 5.8 5.91926 5.8 5.9229 5.8C 5.92655 5.8 5.93019 5.8 5.93382 5.8C 5.93746 5.8 5.94109 5.8 5.94471 5.8C 5.94834 5.8 5.95196 5.8 5.95558 5.8C 5.95919 5.8 5.9628 5.8 5.96641 5.8C 5.97002 5.8 5.97362 5.8 5.97721 5.8C 5.98081 5.8 5.9844 5.8 5.98799 5.8C 5.99157 5.8 5.99515 5.8 5.99873 5.8C 6.0023 5.8 6.00588 5.8 6.00944 5.8C 6.01301 5.8 6.01657 5.8 6.02012 5.8C 6.02368 5.8 6.02723 5.8 6.03077 5.8C 6.03432 5.8 6.03786 5.8 6.04139 5.8C 6.04493 5.8 6.04846 5.8 6.05198 5.8C 6.0555 5.8 6.05902 5.8 6.06254 5.8C 6.06605 5.8 6.06956 5.8 6.07306 5.8C 6.07656 5.8 6.08006 5.8 6.08355 5.8C 6.08704 5.8 6.09053 5.8 6.09401 5.8C 6.09749 5.8 6.10097 5.8 6.10444 5.8C 6.10791 5.8 6.11137 5.8 6.11483 5.8C 6.11829 5.8 6.12174 5.8 6.12519 5.8C 6.12864 5.8 6.13208 5.8 6.13552 5.8C 6.13896 5.8 6.14239 5.8 6.14581 5.8C 6.14924 5.8 6.15266 5.8 6.15607 5.8C 6.15948 5.8 6.16289 5.8 6.16629 5.8C 6.1697 5.8 6.17309 5.8 6.17648 5.8C 6.17988 5.8 6.18326 5.8 6.18664 5.8C 6.19002 5.8 6.19339 5.8 6.19676 5.8C 6.20013 5.8 6.20349 5.8 6.20685 5.8C 6.2102 5.8 6.21355 5.8 6.21689 5.8C 6.22024 5.8 6.22358 5.8 6.22691 5.8C 6.23024 5.8 6.23357 5.8 6.23689 5.8C 6.24021 5.8 6.24352 5.8 6.24683 5.8C 6.25014 5.8 6.25344 5.8 6.25673 5.8C 6.26003 5.8 6.26332 5.8 6.2666 5.8C 6.26988 5.8 6.27316 5.8 6.27643 5.8C 6.2797 5.8 6.28297 5.8 6.28622 5.8C 6.28948 5.8 6.29274 5.8 6.29598 5.8C 6.29923 5.8 6.30247 5.8 6.3057 5.8C 6.30893 5.8 6.31216 5.8 6.31538 5.8C 6.3186 5.8 6.32181 5.8 6.32502 5.8C 6.32823 5.8 6.33143 5.8 6.33463 5.8C 6.33782 5.8 6.34101 5.8 6.34419 5.8C 6.34737 5.8 6.35055 5.8 6.35372 5.8C 6.35688 5.8 6.36005 5.8 6.3632 5.8C 6.36636 5.8 6.36951 5.8 6.37265 5.8C 6.37579 5.8 6.37893 5.8 6.38206 5.8C 6.38518 5.8 6.38831 5.8 6.39142 5.8C 6.39454 5.8 6.39765 5.8 6.40075 5.8C 6.40385 5.8 6.40695 5.8 6.41004 5.8C 6.41312 5.8 6.41621 5.8 6.41928 5.8C 6.42236 5.8 6.42542 5.8 6.42848 5.8C 6.43155 5.8 6.4346 5.8 6.43765 5.8C 6.44069 5.8 6.44374 5.8 6.44677 5.8C 6.4498 5.8 6.45283 5.8 6.45585 5.8C 6.45887 5.8 6.46188 5.8 6.46489 5.8C 6.46789 5.8 6.47089 5.8 6.47388 5.8C 6.47687 5.8 6.47986 5.8 6.48283 5.8C 6.48581 5.8 6.48878 5.8 6.49174 5.8C 6.49471 5.8 6.49766 5.8 6.50061 5.8C 6.50356 5.8 6.5065 5.8 6.50943 5.8C 6.51237 5.8 6.51529 5.8 6.51821 5.8C 6.52113 5.8 6.52404 5.8 6.52695 5.8C 6.52985 5.8 6.53275 5.8 6.53564 5.8C 6.53853 5.8 6.54141 5.8 6.54429 5.8C 6.54716 5.8 6.55003 5.8 6.55289 5.8C 6.55575 5.8 6.5586 5.8 6.56145 5.8C 6.56429 5.8 6.56713 5.8 6.56996 5.8C 6.57279 5.8 6.57561 5.8 6.57843 5.8C 6.58124 5.8 6.58405 5.8 6.58685 5.8C 6.58965 5.8 6.59244 5.8 6.59523 5.8C 6.59801 5.8 6.60079 5.8 6.60356 5.8C 6.60633 5.8 6.60909 5.8 6.61184 5.8C 6.61459 5.8 6.61734 5.8 6.62008 5.8C 6.62282 5.8 6.62555 5.8 6.62827 5.8C 6.63099 5.8 6.63371 5.8 6.63641 5.8C 6.63912 5.8 6.64182 5.8 6.64451 5.8C 6.6472 5.8 6.64988 5.8 6.65256 5.8C 6.65523 5.8 6.6579 5.8 6.66056 5.8C 6.66322 5.8 6.66587 5.8 6.66851 5.8C 6.67115 5.8 6.67379 5.8 6.67641 5.8C 6.67904 5.8 6.68166 5.8 6.68427 5.8C 6.68688 5.8 6.68948 5.8 6.69208 5.8C 6.69467 5.8 6.69726 5.8 6.69983 5.8C 6.70241 5.8 6.70498 5.8 6.70754 5.8C 6.7101 5.8 6.71266 5.8 6.7152 5.8C 6.71774 5.8 6.72028 5.8 6.72281 5.8C 6.72534 5.8 6.72786 5.8 6.73037 5.8C 6.73288 5.8 6.73538 5.8 6.73787 5.8C 6.74037 5.8 6.74285 5.8 6.74533 5.8C 6.74781 5.8 6.75028 5.8 6.75274 5.8C 6.7552 5.8 6.75765 5.8 6.76009 5.8C 6.76254 5.8 6.76497 5.8 6.7674 5.8C 6.76982 5.8 6.77224 5.8 6.77465 5.8C 6.77706 5.8 6.77946 5.8 6.78185 5.8C 6.78424 5.8 6.78663 5.8 6.789 5.8C 6.79137 5.8 6.79374 5.8 6.7961 5.8C 6.79845 5.8 6.8008 5.8 6.80314 5.8C 6.80548 5.8 6.80781 5.8 6.81013 5.8C 6.81245 5.8 6.81476 5.8 6.81707 5.8C 6.81937 5.8 6.82167 5.8 6.82395 5.8C 6.82624 5.8 6.82852 5.8 6.83078 5.8C 6.83305 5.8 6.83531 5.8 6.83756 5.8C 6.83981 5.8 6.84205 5.8 6.84428 5.8C 6.84651 5.8 6.84874 5.8 6.85095 5.8C 6.85316 5.8 6.85537 5.8 6.85756 5.8C 6.85976 5.8 6.86195 5.8 6.86412 5.8C 6.8663 5.8 6.86847 5.8 6.87063 5.8C 6.87278 5.8 6.87493 5.8 6.87707 5.8C 6.87921 5.8 6.88135 5.8 6.88347 5.8C 6.88559 5.8 6.8877 5.8 6.8898 5.8C 6.89191 5.8 6.894 5.8 6.89608 5.8C 6.89817 5.8 6.90024 5.8 6.90231 5.8C 6.90437 5.8 6.90643 5.8 6.90847 5.8C 6.91052 5.8 6.91256 5.8 6.91459 5.8C 6.91661 5.8 6.91863 5.8 6.92064 5.8C 6.92265 5.8 6.92465 5.8 6.92663 5.8C 6.92862 5.8 6.9306 5.8 6.93257 5.8C 6.93454 5.8 6.9365 5.8 6.93845 5.8C 6.9404 5.8 6.94234 5.8 6.94428 5.8C 6.94621 5.8 6.94813 5.8 6.95004 5.8C 6.95195 5.8 6.95385 5.8 6.95574 5.8C 6.95764 5.8 6.95952 5.8 6.96139 5.8C 6.96326 5.8 6.96513 5.8 6.96698 5.8C 6.96883 5.8 6.97067 5.8 6.97251 5.8C 6.97434 5.8 6.97616 5.8 6.97797 5.8C 6.97979 5.8 6.98159 5.8 6.98338 5.8C 6.98517 5.8 6.98696 5.8 6.98873 5.8C 6.9905 5.8 6.99226 5.8 6.99402 5.8C 6.99577 5.8 6.99751 5.8 6.99924 5.8C 7.00098 5.8 7.0027 5.8 7.00441 5.8C 7.00612 5.8 7.00782 5.8 7.00951 5.8C 7.01121 5.8 7.01289 5.8 7.01456 5.8C 7.01623 5.8 7.01789 5.8 7.01954 5.8C 7.02119 5.8 7.02283 5.8 7.02446 5.8C 7.02609 5.8 7.02771 5.8 7.02932 5.8C 7.03093 5.8 7.03252 5.8 7.03411 5.8C 7.0357 5.8 7.03728 5.8 7.03884 5.8C 7.04041 5.8 7.04197 5.8 7.04351 5.8C 7.04506 5.8 7.0466 5.8 7.04812 5.8C 7.04964 5.8 7.05116 5.8 7.05266 5.8C 7.05417 5.8 7.05566 5.8 7.05714 5.8C 7.05862 5.8 7.0601 5.8 7.06156 5.8C 7.06302 5.8 7.06447 5.8 7.06591 5.8C 7.06735 5.8 7.06878 5.8 7.0702 5.8C 7.07161 5.8 7.07302 5.8 7.07442 5.8C 7.07581 5.8 7.0772 5.8 7.07857 5.8C 7.07995 5.8 7.08131 5.8 7.08267 5.8C 7.08402 5.8 7.08536 5.8 7.08669 5.8C 7.08802 5.8 7.08934 5.8 7.09065 5.8C 7.09196 5.8 7.09326 5.8 7.09455 5.8C 7.09583 5.8 7.09711 5.8 7.09838 5.8C 7.09964 5.8 7.1009 5.8 7.10214 5.8C 7.10338 5.8 7.10461 5.8 7.10583 5.8C 7.10705 5.8 7.10826 5.8 7.10946 5.8C 7.11066 5.8 7.11185 5.8 7.11302 5.8C 7.1142 5.8 7.11536 5.8 7.11652 5.8C 7.11767 5.8 7.11881 5.8 7.11994 5.8C 7.12107 5.8 7.12219 5.8 7.1233 5.8C 7.12441 5.8 7.12551 5.8 7.12659 5.8C 7.12768 5.8 7.12875 5.8 7.12981 5.8C 7.13087 5.8 7.13193 5.8 7.13296 5.8C 7.134 5.8 7.13503 5.8 7.13605 5.8C 7.13706 5.8 7.13807 5.8 7.13906 5.8C 7.14006 5.8 7.14104 5.8 7.14201 5.8C 7.14298 5.8 7.14394 5.8 7.14488 5.8C 7.14583 5.8 7.14677 5.8 7.14769 5.8C 7.14861 5.8 7.14952 5.8 7.15042 5.8C 7.15132 5.8 7.15221 5.8 7.15309 5.8C 7.15396 5.8 7.15483 5.8 7.15568 5.8C 7.15654 5.8 7.15738 5.8 7.15821 5.8C 7.15903 5.8 7.15985 5.8 7.16066 5.8C 7.16146 5.8 7.16226 5.8 7.16304 5.8C 7.16382 5.8 7.16459 5.8 7.16535 5.8C 7.1661 5.8 7.16685 5.8 7.16758 5.8C 7.16832 5.8 7.16904 5.8 7.16975 5.8C 7.17046 5.8 7.17115 5.8 7.17184 5.8C 7.17252 5.8 7.1732 5.8 7.17386 5.8C 7.17452 5.8 7.17517 5.8 7.1758 5.8C 7.17644 5.8 7.17706 5.8 7.17768 5.8C 7.17829 5.8 7.17889 5.8 7.17948 5.8C 7.18006 5.8 7.18064 5.8 7.1812 5.8C 7.18176 5.8 7.18231 5.8 7.18285 5.8C 7.18339 5.8 7.18392 5.8 7.18443 5.8C 7.18494 5.8 7.18544 5.8 7.18593 5.8C 7.18642 5.8 7.1869 5.8 7.18736 5.8C 7.18783 5.8 7.18828 5.8 7.18871 5.8C 7.18915 5.8 7.18958 5.8 7.18999 5.8C 7.19041 5.8 7.19081 5.8 7.1912 5.8C 7.19158 5.8 7.19196 5.8 7.19232 5.8C 7.19268 5.8 7.19303 5.8 7.19337 5.8C 7.19371 5.8 7.19403 5.8 7.19435 5.8C 7.19466 5.8 7.19496 5.8 7.19524 5.8C 7.19553 5.8 7.1958 5.8 7.19607 5.8C 7.19633 5.8 7.19657 5.8 7.19681 5.8C 7.19704 5.8 7.19727 5.8 7.19748 5.8C 7.19769 5.8 7.19788 5.8 7.19807 5.8C 7.19825 5.8 7.19842 5.8 7.19858 5.8C 7.19873 5.8 7.19888 5.8 7.19901 5.8C 7.19914 5.8 7.19926 5.8 7.19937 5.8C 7.19947 5.8 7.19956 5.8 7.19964 5.8C 7.19972 5.8 7.19979 5.8 7.19984 5.8C 7.19989 5.8 7.19993 5.8 7.19996 5.8C 7.19999 5.8 7.2 5.8 7.2 4.8ZM 2.4 3.8C 1.62668 3.8 1 3.17332 1 2.4L -1 2.4C -1 4.27788 0.522115 5.8 2.4 5.8L 2.4 3.8Z"/>
<path id="path3_stroke" d="M 0 4.8L -0.967744 4.54806L -1.29366 5.8L 0 5.8L 0 4.8ZM 8.2 2.4C 8.2 0.522115 6.67788 -1 4.8 -1L 4.8 1C 5.57332 1 6.2 1.62668 6.2 2.4L 8.2 2.4ZM 4.8 -1C 2.51143 -1 1.04786 0.557231 0.222572 1.86686C -0.200267 2.53786 -0.494619 3.20094 -0.682934 3.69184C -0.777704 3.93889 -0.847165 4.14639 -0.893671 4.2949C -0.916954 4.36924 -0.934573 4.42909 -0.946808 4.47202C -0.952928 4.49349 -0.957708 4.51076 -0.961184 4.52353C -0.962923 4.52991 -0.964335 4.53518 -0.965427 4.53928C -0.965973 4.54133 -0.966438 4.54309 -0.966824 4.54455C -0.967017 4.54529 -0.96719 4.54595 -0.967344 4.54653C -0.96742 4.54682 -0.96752 4.54721 -0.967559 4.54735C -0.967654 4.54772 -0.967744 4.54806 0 4.8C 0.967744 5.05194 0.967663 5.05225 0.967587 5.05254C 0.967568 5.05261 0.967497 5.05288 0.967458 5.05303C 0.967381 5.05332 0.967323 5.05355 0.967283 5.0537C 0.967203 5.054 0.967197 5.05402 0.967265 5.05377C 0.967402 5.05325 0.967836 5.05163 0.96857 5.04893C 0.97004 5.04353 0.972709 5.03385 0.976608 5.02017C 0.984412 4.99279 0.997107 4.94951 1.01493 4.8926C 1.05063 4.77861 1.10653 4.61112 1.18438 4.40816C 1.34132 3.99906 1.58127 3.46214 1.91463 2.93314C 2.60174 1.84277 3.53817 1 4.8 1L 4.8 -1ZM 0 4.8C 0 5.8 1.32538e-05 5.8 3.97195e-05 5.8C 6.61851e-05 5.8 0.000105863 5.8 0.00015871 5.8C 0.000211558 5.8 0.000277575 5.8 0.000356721 5.8C 0.000435867 5.8 0.00052814 5.8 0.0006335 5.8C 0.00073886 5.8 0.000857306 5.8 0.000988797 5.8C 0.00112029 5.8 0.00126482 5.8 0.00142236 5.8C 0.0015799 5.8 0.00175044 5.8 0.00193394 5.8C 0.00211744 5.8 0.0023139 5.8 0.00252328 5.8C 0.00273265 5.8 0.00295495 5.8 0.00319013 5.8C 0.0034253 5.8 0.00367335 5.8 0.00393424 5.8C 0.00419513 5.8 0.00446885 5.8 0.00475536 5.8C 0.00504187 5.8 0.00534118 5.8 0.00565324 5.8C 0.0059653 5.8 0.0062901 5.8 0.00662762 5.8C 0.00696514 5.8 0.00731537 5.8 0.00767826 5.8C 0.00804116 5.8 0.00841672 5.8 0.00880491 5.8C 0.00919309 5.8 0.0095939 5.8 0.0100073 5.8C 0.0104207 5.8 0.0108467 5.8 0.0112852 5.8C 0.0117237 5.8 0.0121748 5.8 0.0126383 5.8C 0.0131019 5.8 0.013578 5.8 0.0140665 5.8C 0.014555 5.8 0.015056 5.8 0.0155694 5.8C 0.0160828 5.8 0.0166086 5.8 0.0171468 5.8C 0.0176849 5.8 0.0182355 5.8 0.0187984 5.8C 0.0193613 5.8 0.0199365 5.8 0.020524 5.8C 0.0211115 5.8 0.0217113 5.8 0.0223234 5.8C 0.0229354 5.8 0.0235597 5.8 0.0241962 5.8C 0.0248327 5.8 0.0254814 5.8 0.0261423 5.8C 0.0268032 5.8 0.0274762 5.8 0.0281614 5.8C 0.0288465 5.8 0.0295438 5.8 0.0302532 5.8C 0.0309626 5.8 0.031684 5.8 0.0324175 5.8C 0.033151 5.8 0.0338965 5.8 0.034654 5.8C 0.0354115 5.8 0.0361811 5.8 0.0369625 5.8C 0.037744 5.8 0.0385374 5.8 0.0393428 5.8C 0.0401481 5.8 0.0409654 5.8 0.0417945 5.8C 0.0426236 5.8 0.0434646 5.8 0.0443174 5.8C 0.0451703 5.8 0.0460349 5.8 0.0469114 5.8C 0.0477878 5.8 0.048676 5.8 0.049576 5.8C 0.050476 5.8 0.0513877 5.8 0.0523111 5.8C 0.0532346 5.8 0.0541697 5.8 0.0551165 5.8C 0.0560633 5.8 0.0570217 5.8 0.0579918 5.8C 0.0589619 5.8 0.0599435 5.8 0.0609368 5.8C 0.0619301 5.8 0.0629349 5.8 0.0639513 5.8C 0.0649677 5.8 0.0659956 5.8 0.067035 5.8C 0.0680744 5.8 0.0691253 5.8 0.0701877 5.8C 0.0712501 5.8 0.0723239 5.8 0.0734091 5.8C 0.0744943 5.8 0.075591 5.8 0.076699 5.8C 0.077807 5.8 0.0789263 5.8 0.080057 5.8C 0.0811877 5.8 0.0823297 5.8 0.083483 5.8C 0.0846364 5.8 0.0858009 5.8 0.0869768 5.8C 0.0881526 5.8 0.0893397 5.8 0.090538 5.8C 0.0917362 5.8 0.0929457 5.8 0.0941664 5.8C 0.095387 5.8 0.0966188 5.8 0.0978617 5.8C 0.0991046 5.8 0.100359 5.8 0.101624 5.8C 0.102889 5.8 0.104165 5.8 0.105452 5.8C 0.106739 5.8 0.108038 5.8 0.109347 5.8C 0.110656 5.8 0.111976 5.8 0.113308 5.8C 0.114639 5.8 0.115981 5.8 0.117334 5.8C 0.118687 5.8 0.120051 5.8 0.121426 5.8C 0.122801 5.8 0.124186 5.8 0.125583 5.8C 0.126979 5.8 0.128387 5.8 0.129805 5.8C 0.131223 5.8 0.132652 5.8 0.134091 5.8C 0.135531 5.8 0.136981 5.8 0.138442 5.8C 0.139903 5.8 0.141375 5.8 0.142858 5.8C 0.14434 5.8 0.145833 5.8 0.147337 5.8C 0.148841 5.8 0.150355 5.8 0.15188 5.8C 0.153405 5.8 0.15494 5.8 0.156486 5.8C 0.158032 5.8 0.159588 5.8 0.161155 5.8C 0.162722 5.8 0.1643 5.8 0.165888 5.8C 0.167476 5.8 0.169074 5.8 0.170683 5.8C 0.172292 5.8 0.173911 5.8 0.175541 5.8C 0.17717 5.8 0.17881 5.8 0.18046 5.8C 0.182111 5.8 0.183771 5.8 0.185442 5.8C 0.187113 5.8 0.188794 5.8 0.190485 5.8C 0.192177 5.8 0.193878 5.8 0.19559 5.8C 0.197302 5.8 0.199024 5.8 0.200756 5.8C 0.202488 5.8 0.20423 5.8 0.205983 5.8C 0.207735 5.8 0.209498 5.8 0.21127 5.8C 0.213043 5.8 0.214825 5.8 0.216618 5.8C 0.218411 5.8 0.220213 5.8 0.222026 5.8C 0.223839 5.8 0.225662 5.8 0.227494 5.8C 0.229327 5.8 0.231169 5.8 0.233022 5.8C 0.234874 5.8 0.236737 5.8 0.238609 5.8C 0.240481 5.8 0.242363 5.8 0.244255 5.8C 0.246147 5.8 0.248049 5.8 0.24996 5.8C 0.251872 5.8 0.253793 5.8 0.255724 5.8C 0.257655 5.8 0.259596 5.8 0.261546 5.8C 0.263497 5.8 0.265457 5.8 0.267427 5.8C 0.269396 5.8 0.271376 5.8 0.273365 5.8C 0.275354 5.8 0.277353 5.8 0.279361 5.8C 0.281369 5.8 0.283387 5.8 0.285414 5.8C 0.287442 5.8 0.289478 5.8 0.291525 5.8C 0.293571 5.8 0.295627 5.8 0.297692 5.8C 0.299757 5.8 0.301832 5.8 0.303916 5.8C 0.306 5.8 0.308094 5.8 0.310197 5.8C 0.312299 5.8 0.314412 5.8 0.316533 5.8C 0.318655 5.8 0.320785 5.8 0.322926 5.8C 0.325066 5.8 0.327215 5.8 0.329374 5.8C 0.331532 5.8 0.3337 5.8 0.335877 5.8C 0.338054 5.8 0.34024 5.8 0.342436 5.8C 0.344631 5.8 0.346836 5.8 0.349049 5.8C 0.351263 5.8 0.353486 5.8 0.355717 5.8C 0.357949 5.8 0.36019 5.8 0.36244 5.8C 0.36469 5.8 0.366949 5.8 0.369217 5.8C 0.371485 5.8 0.373761 5.8 0.376047 5.8C 0.378333 5.8 0.380628 5.8 0.382931 5.8C 0.385235 5.8 0.387548 5.8 0.389869 5.8C 0.39219 5.8 0.394521 5.8 0.39686 5.8C 0.399199 5.8 0.401547 5.8 0.403903 5.8C 0.40626 5.8 0.408625 5.8 0.410999 5.8C 0.413374 5.8 0.415756 5.8 0.418148 5.8C 0.420539 5.8 0.42294 5.8 0.425349 5.8C 0.427758 5.8 0.430175 5.8 0.432601 5.8C 0.435027 5.8 0.437462 5.8 0.439905 5.8C 0.442349 5.8 0.444801 5.8 0.447261 5.8C 0.449721 5.8 0.45219 5.8 0.454668 5.8C 0.457145 5.8 0.459631 5.8 0.462125 5.8C 0.464619 5.8 0.467122 5.8 0.469633 5.8C 0.472144 5.8 0.474664 5.8 0.477192 5.8C 0.47972 5.8 0.482256 5.8 0.4848 5.8C 0.487345 5.8 0.489898 5.8 0.492459 5.8C 0.49502 5.8 0.497589 5.8 0.500167 5.8C 0.502745 5.8 0.50533 5.8 0.507924 5.8C 0.510518 5.8 0.513121 5.8 0.515731 5.8C 0.518341 5.8 0.52096 5.8 0.523586 5.8C 0.526213 5.8 0.528848 5.8 0.53149 5.8C 0.534133 5.8 0.536784 5.8 0.539443 5.8C 0.542102 5.8 0.544768 5.8 0.547443 5.8C 0.550118 5.8 0.552801 5.8 0.555492 5.8C 0.558182 5.8 0.560881 5.8 0.563587 5.8C 0.566294 5.8 0.569008 5.8 0.571731 5.8C 0.574453 5.8 0.577183 5.8 0.579921 5.8C 0.582659 5.8 0.585405 5.8 0.588158 5.8C 0.590912 5.8 0.593673 5.8 0.596442 5.8C 0.599211 5.8 0.601988 5.8 0.604772 5.8C 0.607557 5.8 0.610349 5.8 0.613148 5.8C 0.615948 5.8 0.618756 5.8 0.621571 5.8C 0.624385 5.8 0.627208 5.8 0.630038 5.8C 0.632868 5.8 0.635706 5.8 0.638551 5.8C 0.641396 5.8 0.644249 5.8 0.647109 5.8C 0.649969 5.8 0.652837 5.8 0.655712 5.8C 0.658587 5.8 0.66147 5.8 0.66436 5.8C 0.66725 5.8 0.670147 5.8 0.673051 5.8C 0.675956 5.8 0.678868 5.8 0.681787 5.8C 0.684707 5.8 0.687633 5.8 0.690567 5.8C 0.693501 5.8 0.696442 5.8 0.69939 5.8C 0.702339 5.8 0.705294 5.8 0.708257 5.8C 0.71122 5.8 0.71419 5.8 0.717167 5.8C 0.720144 5.8 0.723128 5.8 0.726119 5.8C 0.72911 5.8 0.732109 5.8 0.735114 5.8C 0.73812 5.8 0.741132 5.8 0.744152 5.8C 0.747171 5.8 0.750198 5.8 0.753231 5.8C 0.756265 5.8 0.759305 5.8 0.762352 5.8C 0.7654 5.8 0.768454 5.8 0.771515 5.8C 0.774576 5.8 0.777644 5.8 0.780719 5.8C 0.783794 5.8 0.786876 5.8 0.789965 5.8C 0.793053 5.8 0.796148 5.8 0.799251 5.8C 0.802353 5.8 0.805462 5.8 0.808577 5.8C 0.811693 5.8 0.814815 5.8 0.817944 5.8C 0.821073 5.8 0.824209 5.8 0.827351 5.8C 0.830493 5.8 0.833642 5.8 0.836798 5.8C 0.839953 5.8 0.843116 5.8 0.846284 5.8C 0.849453 5.8 0.852628 5.8 0.85581 5.8C 0.858992 5.8 0.86218 5.8 0.865374 5.8C 0.868569 5.8 0.87177 5.8 0.874978 5.8C 0.878186 5.8 0.8814 5.8 0.88462 5.8C 0.88784 5.8 0.891067 5.8 0.8943 5.8C 0.897533 5.8 0.900773 5.8 0.904019 5.8C 0.907264 5.8 0.910516 5.8 0.913775 5.8C 0.917033 5.8 0.920298 5.8 0.923568 5.8C 0.926839 5.8 0.930116 5.8 0.933399 5.8C 0.936683 5.8 0.939972 5.8 0.943268 5.8C 0.946563 5.8 0.949865 5.8 0.953172 5.8C 0.95648 5.8 0.959794 5.8 0.963114 5.8C 0.966434 5.8 0.969759 5.8 0.973091 5.8C 0.976423 5.8 0.979761 5.8 0.983105 5.8C 0.986449 5.8 0.989799 5.8 0.993154 5.8C 0.99651 5.8 0.999872 5.8 1.00324 5.8C 1.00661 5.8 1.00998 5.8 1.01336 5.8C 1.01674 5.8 1.02012 5.8 1.02351 5.8C 1.02691 5.8 1.0303 5.8 1.03371 5.8C 1.03711 5.8 1.04052 5.8 1.04393 5.8C 1.04734 5.8 1.05076 5.8 1.05419 5.8C 1.05761 5.8 1.06104 5.8 1.06448 5.8C 1.06792 5.8 1.07136 5.8 1.07481 5.8C 1.07826 5.8 1.08171 5.8 1.08517 5.8C 1.08863 5.8 1.09209 5.8 1.09556 5.8C 1.09903 5.8 1.10251 5.8 1.10599 5.8C 1.10947 5.8 1.11296 5.8 1.11645 5.8C 1.11994 5.8 1.12344 5.8 1.12694 5.8C 1.13044 5.8 1.13395 5.8 1.13746 5.8C 1.14098 5.8 1.1445 5.8 1.14802 5.8C 1.15154 5.8 1.15507 5.8 1.15861 5.8C 1.16214 5.8 1.16568 5.8 1.16923 5.8C 1.17277 5.8 1.17632 5.8 1.17988 5.8C 1.18343 5.8 1.18699 5.8 1.19056 5.8C 1.19412 5.8 1.1977 5.8 1.20127 5.8C 1.20485 5.8 1.20843 5.8 1.21201 5.8C 1.2156 5.8 1.21919 5.8 1.22279 5.8C 1.22638 5.8 1.22998 5.8 1.23359 5.8C 1.2372 5.8 1.24081 5.8 1.24442 5.8C 1.24804 5.8 1.25166 5.8 1.25529 5.8C 1.25891 5.8 1.26254 5.8 1.26618 5.8C 1.26981 5.8 1.27345 5.8 1.2771 5.8C 1.28074 5.8 1.28439 5.8 1.28805 5.8C 1.2917 5.8 1.29536 5.8 1.29902 5.8C 1.30269 5.8 1.30636 5.8 1.31003 5.8C 1.3137 5.8 1.31738 5.8 1.32106 5.8C 1.32475 5.8 1.32843 5.8 1.33213 5.8C 1.33582 5.8 1.33951 5.8 1.34322 5.8C 1.34692 5.8 1.35062 5.8 1.35433 5.8C 1.35804 5.8 1.36176 5.8 1.36548 5.8C 1.36919 5.8 1.37292 5.8 1.37665 5.8C 1.38037 5.8 1.38411 5.8 1.38784 5.8C 1.39158 5.8 1.39532 5.8 1.39907 5.8C 1.40281 5.8 1.40656 5.8 1.41031 5.8C 1.41407 5.8 1.41783 5.8 1.42159 5.8C 1.42535 5.8 1.42912 5.8 1.43289 5.8C 1.43666 5.8 1.44044 5.8 1.44421 5.8C 1.44799 5.8 1.45178 5.8 1.45557 5.8C 1.45935 5.8 1.46314 5.8 1.46694 5.8C 1.47074 5.8 1.47454 5.8 1.47834 5.8C 1.48214 5.8 1.48595 5.8 1.48976 5.8C 1.49358 5.8 1.49739 5.8 1.50121 5.8C 1.50503 5.8 1.50885 5.8 1.51268 5.8C 1.51651 5.8 1.52034 5.8 1.52418 5.8C 1.52801 5.8 1.53185 5.8 1.5357 5.8C 1.53954 5.8 1.54339 5.8 1.54724 5.8C 1.55109 5.8 1.55494 5.8 1.5588 5.8C 1.56266 5.8 1.56652 5.8 1.57039 5.8C 1.57425 5.8 1.57812 5.8 1.582 5.8C 1.58587 5.8 1.58975 5.8 1.59363 5.8C 1.59751 5.8 1.60139 5.8 1.60528 5.8C 1.60917 5.8 1.61306 5.8 1.61695 5.8C 1.62085 5.8 1.62474 5.8 1.62865 5.8C 1.63255 5.8 1.63645 5.8 1.64036 5.8C 1.64427 5.8 1.64818 5.8 1.6521 5.8C 1.65601 5.8 1.65993 5.8 1.66386 5.8C 1.66778 5.8 1.6717 5.8 1.67563 5.8C 1.67956 5.8 1.68349 5.8 1.68743 5.8C 1.69136 5.8 1.6953 5.8 1.69925 5.8C 1.70319 5.8 1.70713 5.8 1.71108 5.8C 1.71503 5.8 1.71898 5.8 1.72294 5.8C 1.72689 5.8 1.73085 5.8 1.73481 5.8C 1.73877 5.8 1.74274 5.8 1.7467 5.8C 1.75067 5.8 1.75464 5.8 1.75862 5.8C 1.76259 5.8 1.76657 5.8 1.77055 5.8C 1.77453 5.8 1.77851 5.8 1.78249 5.8C 1.78648 5.8 1.79047 5.8 1.79446 5.8C 1.79845 5.8 1.80244 5.8 1.80644 5.8C 1.81044 5.8 1.81444 5.8 1.81844 5.8C 1.82244 5.8 1.82645 5.8 1.83046 5.8C 1.83447 5.8 1.83848 5.8 1.84249 5.8C 1.84651 5.8 1.85052 5.8 1.85454 5.8C 1.85856 5.8 1.86258 5.8 1.86661 5.8C 1.87063 5.8 1.87466 5.8 1.87869 5.8C 1.88272 5.8 1.88675 5.8 1.89079 5.8C 1.89482 5.8 1.89886 5.8 1.9029 5.8C 1.90694 5.8 1.91098 5.8 1.91503 5.8C 1.91907 5.8 1.92312 5.8 1.92717 5.8C 1.93122 5.8 1.93527 5.8 1.93933 5.8C 1.94338 5.8 1.94744 5.8 1.9515 5.8C 1.95556 5.8 1.95962 5.8 1.96369 5.8C 1.96775 5.8 1.97182 5.8 1.97589 5.8C 1.97996 5.8 1.98403 5.8 1.9881 5.8C 1.99218 5.8 1.99625 5.8 2.00033 5.8C 2.00441 5.8 2.00849 5.8 2.01257 5.8C 2.01665 5.8 2.02074 5.8 2.02482 5.8C 2.02891 5.8 2.033 5.8 2.03709 5.8C 2.04118 5.8 2.04527 5.8 2.04937 5.8C 2.05346 5.8 2.05756 5.8 2.06166 5.8C 2.06576 5.8 2.06986 5.8 2.07396 5.8C 2.07806 5.8 2.08217 5.8 2.08628 5.8C 2.09038 5.8 2.09449 5.8 2.0986 5.8C 2.10271 5.8 2.10682 5.8 2.11094 5.8C 2.11505 5.8 2.11917 5.8 2.12329 5.8C 2.1274 5.8 2.13152 5.8 2.13564 5.8C 2.13977 5.8 2.14389 5.8 2.14801 5.8C 2.15214 5.8 2.15626 5.8 2.16039 5.8C 2.16452 5.8 2.16865 5.8 2.17278 5.8C 2.17691 5.8 2.18104 5.8 2.18518 5.8C 2.18931 5.8 2.19345 5.8 2.19759 5.8C 2.20172 5.8 2.20586 5.8 2.21 5.8C 2.21414 5.8 2.21829 5.8 2.22243 5.8C 2.22657 5.8 2.23072 5.8 2.23486 5.8C 2.23901 5.8 2.24316 5.8 2.24731 5.8C 2.25146 5.8 2.25561 5.8 2.25976 5.8C 2.26391 5.8 2.26806 5.8 2.27222 5.8C 2.27637 5.8 2.28053 5.8 2.28468 5.8C 2.28884 5.8 2.293 5.8 2.29716 5.8C 2.30132 5.8 2.30548 5.8 2.30964 5.8C 2.3138 5.8 2.31796 5.8 2.32213 5.8C 2.32629 5.8 2.33045 5.8 2.33462 5.8C 2.33879 5.8 2.34295 5.8 2.34712 5.8C 2.35129 5.8 2.35546 5.8 2.35963 5.8C 2.3638 5.8 2.36797 5.8 2.37214 5.8C 2.37631 5.8 2.38049 5.8 2.38466 5.8C 2.38883 5.8 2.39301 5.8 2.39718 5.8C 2.40136 5.8 2.40553 5.8 2.40971 5.8C 2.41389 5.8 2.41807 5.8 2.42225 5.8C 2.42642 5.8 2.4306 5.8 2.43478 5.8C 2.43896 5.8 2.44315 5.8 2.44733 5.8C 2.45151 5.8 2.45569 5.8 2.45987 5.8C 2.46406 5.8 2.46824 5.8 2.47242 5.8C 2.47661 5.8 2.48079 5.8 2.48498 5.8C 2.48916 5.8 2.49335 5.8 2.49754 5.8C 2.50172 5.8 2.50591 5.8 2.5101 5.8C 2.51428 5.8 2.51847 5.8 2.52266 5.8C 2.52685 5.8 2.53104 5.8 2.53523 5.8C 2.53942 5.8 2.54361 5.8 2.5478 5.8C 2.55199 5.8 2.55618 5.8 2.56037 5.8C 2.56456 5.8 2.56875 5.8 2.57294 5.8C 2.57713 5.8 2.58132 5.8 2.58551 5.8C 2.5897 5.8 2.5939 5.8 2.59809 5.8C 2.60228 5.8 2.60647 5.8 2.61067 5.8C 2.61486 5.8 2.61905 5.8 2.62324 5.8C 2.62744 5.8 2.63163 5.8 2.63582 5.8C 2.64001 5.8 2.64421 5.8 2.6484 5.8C 2.65259 5.8 2.65678 5.8 2.66098 5.8C 2.66517 5.8 2.66936 5.8 2.67356 5.8C 2.67775 5.8 2.68194 5.8 2.68613 5.8C 2.69033 5.8 2.69452 5.8 2.69871 5.8C 2.7029 5.8 2.7071 5.8 2.71129 5.8C 2.71548 5.8 2.71967 5.8 2.72386 5.8C 2.72805 5.8 2.73224 5.8 2.73644 5.8C 2.74063 5.8 2.74482 5.8 2.74901 5.8C 2.7532 5.8 2.75739 5.8 2.76158 5.8C 2.76577 5.8 2.76996 5.8 2.77415 5.8C 2.77833 5.8 2.78252 5.8 2.78671 5.8C 2.7909 5.8 2.79509 5.8 2.79927 5.8C 2.80346 5.8 2.80765 5.8 2.81183 5.8C 2.81602 5.8 2.82021 5.8 2.82439 5.8C 2.82858 5.8 2.83276 5.8 2.83694 5.8C 2.84113 5.8 2.84531 5.8 2.84949 5.8C 2.85368 5.8 2.85786 5.8 2.86204 5.8C 2.86622 5.8 2.8704 5.8 2.87458 5.8C 2.87876 5.8 2.88294 5.8 2.88712 5.8C 2.8913 5.8 2.89547 5.8 2.89965 5.8C 2.90383 5.8 2.908 5.8 2.91218 5.8C 2.91635 5.8 2.92053 5.8 2.9247 5.8C 2.92887 5.8 2.93305 5.8 2.93722 5.8C 2.94139 5.8 2.94556 5.8 2.94973 5.8C 2.9539 5.8 2.95807 5.8 2.96223 5.8C 2.9664 5.8 2.97057 5.8 2.97473 5.8C 2.9789 5.8 2.98306 5.8 2.98722 5.8C 2.99139 5.8 2.99555 5.8 2.99971 5.8C 3.00387 5.8 3.00803 5.8 3.01219 5.8C 3.01635 5.8 3.0205 5.8 3.02466 5.8C 3.02882 5.8 3.03297 5.8 3.03712 5.8C 3.04128 5.8 3.04543 5.8 3.04958 5.8C 3.05373 5.8 3.05788 5.8 3.06203 5.8C 3.06618 5.8 3.07032 5.8 3.07447 5.8C 3.07862 5.8 3.08276 5.8 3.0869 5.8C 3.09104 5.8 3.09519 5.8 3.09933 5.8C 3.10346 5.8 3.1076 5.8 3.11174 5.8C 3.11588 5.8 3.12001 5.8 3.12414 5.8C 3.12828 5.8 3.13241 5.8 3.13654 5.8C 3.14067 5.8 3.1448 5.8 3.14893 5.8C 3.15305 5.8 3.15718 5.8 3.1613 5.8C 3.16543 5.8 3.16955 5.8 3.17367 5.8C 3.17779 5.8 3.18191 5.8 3.18602 5.8C 3.19014 5.8 3.19425 5.8 3.19837 5.8C 3.20248 5.8 3.20659 5.8 3.2107 5.8C 3.21481 5.8 3.21892 5.8 3.22302 5.8C 3.22713 5.8 3.23123 5.8 3.23533 5.8C 3.23943 5.8 3.24353 5.8 3.24763 5.8C 3.25173 5.8 3.25583 5.8 3.25992 5.8C 3.26401 5.8 3.2681 5.8 3.27219 5.8C 3.27628 5.8 3.28037 5.8 3.28446 5.8C 3.28854 5.8 3.29262 5.8 3.29671 5.8C 3.30079 5.8 3.30487 5.8 3.30894 5.8C 3.31302 5.8 3.31709 5.8 3.32117 5.8C 3.32524 5.8 3.32931 5.8 3.33338 5.8C 3.33744 5.8 3.34151 5.8 3.34557 5.8C 3.34963 5.8 3.3537 5.8 3.35775 5.8C 3.36181 5.8 3.36587 5.8 3.36992 5.8C 3.37398 5.8 3.37803 5.8 3.38208 5.8C 3.38612 5.8 3.39017 5.8 3.39421 5.8C 3.39826 5.8 3.4023 5.8 3.40634 5.8C 3.41038 5.8 3.41441 5.8 3.41845 5.8C 3.42248 5.8 3.42651 5.8 3.43054 5.8C 3.43457 5.8 3.43859 5.8 3.44262 5.8C 3.44664 5.8 3.45066 5.8 3.45468 5.8C 3.4587 5.8 3.46271 5.8 3.46672 5.8C 3.47073 5.8 3.47474 5.8 3.47875 5.8C 3.48276 5.8 3.48676 5.8 3.49076 5.8C 3.49476 5.8 3.49876 5.8 3.50276 5.8C 3.50675 5.8 3.51075 5.8 3.51473 5.8C 3.51872 5.8 3.52271 5.8 3.52669 5.8C 3.53068 5.8 3.53466 5.8 3.53864 5.8C 3.54261 5.8 3.54659 5.8 3.55056 5.8C 3.55453 5.8 3.5585 5.8 3.56247 5.8C 3.56643 5.8 3.57039 5.8 3.57435 5.8C 3.57831 5.8 3.58227 5.8 3.58622 5.8C 3.59018 5.8 3.59413 5.8 3.59807 5.8C 3.60202 5.8 3.60596 5.8 3.6099 5.8C 3.61384 5.8 3.61778 5.8 3.62171 5.8C 3.62565 5.8 3.62958 5.8 3.6335 5.8C 3.63743 5.8 3.64136 5.8 3.64528 5.8C 3.6492 5.8 3.65311 5.8 3.65703 5.8C 3.66094 5.8 3.66485 5.8 3.66876 5.8C 3.67266 5.8 3.67657 5.8 3.68047 5.8C 3.68437 5.8 3.68826 5.8 3.69215 5.8C 3.69605 5.8 3.69994 5.8 3.70382 5.8C 3.70771 5.8 3.71159 5.8 3.71547 5.8C 3.71934 5.8 3.72322 5.8 3.72709 5.8C 3.73096 5.8 3.73483 5.8 3.73869 5.8C 3.74256 5.8 3.74642 5.8 3.75027 5.8C 3.75413 5.8 3.75798 5.8 3.76183 5.8C 3.76568 5.8 3.76952 5.8 3.77336 5.8C 3.7772 5.8 3.78104 5.8 3.78487 5.8C 3.78871 5.8 3.79254 5.8 3.79636 5.8C 3.80019 5.8 3.80401 5.8 3.80783 5.8C 3.81164 5.8 3.81546 5.8 3.81927 5.8C 3.82308 5.8 3.82688 5.8 3.83068 5.8C 3.83448 5.8 3.83828 5.8 3.84208 5.8C 3.84587 5.8 3.84966 5.8 3.85344 5.8C 3.85723 5.8 3.86101 5.8 3.86479 5.8C 3.86856 5.8 3.87233 5.8 3.8761 5.8C 3.87987 5.8 3.88364 5.8 3.8874 5.8C 3.89116 5.8 3.89491 5.8 3.89866 5.8C 3.90241 5.8 3.90616 5.8 3.9099 5.8C 3.91365 5.8 3.91738 5.8 3.92112 5.8C 3.92485 5.8 3.92858 5.8 3.93231 5.8C 3.93603 5.8 3.93975 5.8 3.94347 5.8C 3.94719 5.8 3.9509 5.8 3.95461 5.8C 3.95831 5.8 3.96202 5.8 3.96571 5.8C 3.96941 5.8 3.97311 5.8 3.97679 5.8C 3.98048 5.8 3.98417 5.8 3.98785 5.8C 3.99153 5.8 3.9952 5.8 3.99887 5.8C 4.00254 5.8 4.00621 5.8 4.00987 5.8C 4.01353 5.8 4.01719 5.8 4.02084 5.8C 4.02449 5.8 4.02814 5.8 4.03178 5.8C 4.03542 5.8 4.03906 5.8 4.04269 5.8C 4.04633 5.8 4.04995 5.8 4.05358 5.8C 4.0572 5.8 4.06082 5.8 4.06443 5.8C 4.06804 5.8 4.07165 5.8 4.07525 5.8C 4.07886 5.8 4.08245 5.8 4.08605 5.8C 4.08964 5.8 4.09323 5.8 4.09681 5.8C 4.10039 5.8 4.10397 5.8 4.10754 5.8C 4.11112 5.8 4.11469 5.8 4.11825 5.8C 4.12181 5.8 4.12537 5.8 4.12892 5.8C 4.13247 5.8 4.13602 5.8 4.13956 5.8C 4.1431 5.8 4.14664 5.8 4.15017 5.8C 4.1537 5.8 4.15723 5.8 4.16075 5.8C 4.16427 5.8 4.16779 5.8 4.1713 5.8C 4.17481 5.8 4.17831 5.8 4.18181 5.8C 4.18531 5.8 4.1888 5.8 4.19229 5.8C 4.19578 5.8 4.19926 5.8 4.20274 5.8C 4.20622 5.8 4.20969 5.8 4.21316 5.8C 4.21662 5.8 4.22009 5.8 4.22354 5.8C 4.227 5.8 4.23045 5.8 4.23389 5.8C 4.23734 5.8 4.24077 5.8 4.24421 5.8C 4.24764 5.8 4.25107 5.8 4.25449 5.8C 4.25791 5.8 4.26133 5.8 4.26474 5.8C 4.26815 5.8 4.27155 5.8 4.27495 5.8C 4.27835 5.8 4.28175 5.8 4.28513 5.8C 4.28852 5.8 4.2919 5.8 4.29528 5.8C 4.29865 5.8 4.30202 5.8 4.30539 5.8C 4.30875 5.8 4.31211 5.8 4.31546 5.8C 4.31881 5.8 4.32216 5.8 4.3255 5.8C 4.32884 5.8 4.33217 5.8 4.3355 5.8C 4.33883 5.8 4.34215 5.8 4.34547 5.8C 4.34879 5.8 4.3521 5.8 4.3554 5.8C 4.3587 5.8 4.362 5.8 4.36529 5.8C 4.36859 5.8 4.37187 5.8 4.37515 5.8C 4.37843 5.8 4.3817 5.8 4.38497 5.8C 4.38824 5.8 4.3915 5.8 4.39475 5.8C 4.39801 5.8 4.40126 5.8 4.4045 5.8C 4.40774 5.8 4.41097 5.8 4.4142 5.8C 4.41743 5.8 4.42066 5.8 4.42387 5.8C 4.42709 5.8 4.4303 5.8 4.4335 5.8C 4.43671 5.8 4.4399 5.8 4.4431 5.8C 4.44629 5.8 4.44947 5.8 4.45265 5.8C 4.45583 5.8 4.459 5.8 4.46216 5.8C 4.46533 5.8 4.46848 5.8 4.47164 5.8C 4.47479 5.8 4.47793 5.8 4.48107 5.8C 4.48421 5.8 4.48734 5.8 4.49047 5.8C 4.49359 5.8 4.49671 5.8 4.49982 5.8C 4.50293 5.8 4.50604 5.8 4.50913 5.8C 4.51223 5.8 4.51532 5.8 4.51841 5.8C 4.52149 5.8 4.52457 5.8 4.52764 5.8C 4.53071 5.8 4.53378 5.8 4.53683 5.8C 4.53989 5.8 4.54294 5.8 4.54598 5.8C 4.54903 5.8 4.55206 5.8 4.55509 5.8C 4.55812 5.8 4.56114 5.8 4.56416 5.8C 4.56717 5.8 4.57018 5.8 4.57318 5.8C 4.57618 5.8 4.57918 5.8 4.58217 5.8C 4.58515 5.8 4.58813 5.8 4.59111 5.8C 4.59408 5.8 4.59704 5.8 4.6 5.8C 4.60296 5.8 4.60591 5.8 4.60886 5.8C 4.6118 5.8 4.61474 5.8 4.61767 5.8C 4.6206 5.8 4.62352 5.8 4.62643 5.8C 4.62935 5.8 4.63225 5.8 4.63515 5.8C 4.63805 5.8 4.64095 5.8 4.64383 5.8C 4.64672 5.8 4.6496 5.8 4.65247 5.8C 4.65534 5.8 4.6582 5.8 4.66106 5.8C 4.66391 5.8 4.66676 5.8 4.6696 5.8C 4.67244 5.8 4.67527 5.8 4.6781 5.8C 4.68093 5.8 4.68374 5.8 4.68655 5.8C 4.68936 5.8 4.69217 5.8 4.69496 5.8C 4.69776 5.8 4.70055 5.8 4.70332 5.8C 4.7061 5.8 4.70888 5.8 4.71164 5.8C 4.71441 5.8 4.71716 5.8 4.71991 5.8C 4.72266 5.8 4.7254 5.8 4.72813 5.8C 4.73087 5.8 4.73359 5.8 4.73631 5.8C 4.73903 5.8 4.74174 5.8 4.74444 5.8C 4.74714 5.8 4.74983 5.8 4.75252 5.8C 4.75521 5.8 4.75788 5.8 4.76055 5.8C 4.76322 5.8 4.76589 5.8 4.76854 5.8C 4.77119 5.8 4.77384 5.8 4.77648 5.8C 4.77912 5.8 4.78175 5.8 4.78437 5.8C 4.78699 5.8 4.7896 5.8 4.79221 5.8C 4.79481 5.8 4.79741 5.8 4.8 5.8L 4.8 3.8C 4.79741 3.8 4.79481 3.8 4.79221 3.8C 4.7896 3.8 4.78699 3.8 4.78437 3.8C 4.78175 3.8 4.77912 3.8 4.77648 3.8C 4.77384 3.8 4.77119 3.8 4.76854 3.8C 4.76589 3.8 4.76322 3.8 4.76055 3.8C 4.75788 3.8 4.75521 3.8 4.75252 3.8C 4.74983 3.8 4.74714 3.8 4.74444 3.8C 4.74174 3.8 4.73903 3.8 4.73631 3.8C 4.73359 3.8 4.73087 3.8 4.72813 3.8C 4.7254 3.8 4.72266 3.8 4.71991 3.8C 4.71716 3.8 4.71441 3.8 4.71164 3.8C 4.70888 3.8 4.7061 3.8 4.70332 3.8C 4.70055 3.8 4.69776 3.8 4.69496 3.8C 4.69217 3.8 4.68936 3.8 4.68655 3.8C 4.68374 3.8 4.68093 3.8 4.6781 3.8C 4.67527 3.8 4.67244 3.8 4.6696 3.8C 4.66676 3.8 4.66391 3.8 4.66106 3.8C 4.6582 3.8 4.65534 3.8 4.65247 3.8C 4.6496 3.8 4.64672 3.8 4.64383 3.8C 4.64095 3.8 4.63805 3.8 4.63515 3.8C 4.63225 3.8 4.62935 3.8 4.62643 3.8C 4.62352 3.8 4.6206 3.8 4.61767 3.8C 4.61474 3.8 4.6118 3.8 4.60886 3.8C 4.60591 3.8 4.60296 3.8 4.6 3.8C 4.59704 3.8 4.59408 3.8 4.59111 3.8C 4.58813 3.8 4.58515 3.8 4.58217 3.8C 4.57918 3.8 4.57618 3.8 4.57318 3.8C 4.57018 3.8 4.56717 3.8 4.56416 3.8C 4.56114 3.8 4.55812 3.8 4.55509 3.8C 4.55206 3.8 4.54903 3.8 4.54598 3.8C 4.54294 3.8 4.53989 3.8 4.53683 3.8C 4.53378 3.8 4.53071 3.8 4.52764 3.8C 4.52457 3.8 4.52149 3.8 4.51841 3.8C 4.51532 3.8 4.51223 3.8 4.50913 3.8C 4.50604 3.8 4.50293 3.8 4.49982 3.8C 4.49671 3.8 4.49359 3.8 4.49047 3.8C 4.48734 3.8 4.48421 3.8 4.48107 3.8C 4.47793 3.8 4.47479 3.8 4.47164 3.8C 4.46848 3.8 4.46533 3.8 4.46216 3.8C 4.459 3.8 4.45583 3.8 4.45265 3.8C 4.44947 3.8 4.44629 3.8 4.4431 3.8C 4.4399 3.8 4.43671 3.8 4.4335 3.8C 4.4303 3.8 4.42709 3.8 4.42387 3.8C 4.42066 3.8 4.41743 3.8 4.4142 3.8C 4.41097 3.8 4.40774 3.8 4.4045 3.8C 4.40126 3.8 4.39801 3.8 4.39475 3.8C 4.3915 3.8 4.38824 3.8 4.38497 3.8C 4.3817 3.8 4.37843 3.8 4.37515 3.8C 4.37187 3.8 4.36859 3.8 4.36529 3.8C 4.362 3.8 4.3587 3.8 4.3554 3.8C 4.3521 3.8 4.34879 3.8 4.34547 3.8C 4.34215 3.8 4.33883 3.8 4.3355 3.8C 4.33217 3.8 4.32884 3.8 4.3255 3.8C 4.32216 3.8 4.31881 3.8 4.31546 3.8C 4.31211 3.8 4.30875 3.8 4.30539 3.8C 4.30202 3.8 4.29865 3.8 4.29528 3.8C 4.2919 3.8 4.28852 3.8 4.28513 3.8C 4.28175 3.8 4.27835 3.8 4.27495 3.8C 4.27155 3.8 4.26815 3.8 4.26474 3.8C 4.26133 3.8 4.25791 3.8 4.25449 3.8C 4.25107 3.8 4.24764 3.8 4.24421 3.8C 4.24077 3.8 4.23734 3.8 4.23389 3.8C 4.23045 3.8 4.227 3.8 4.22354 3.8C 4.22009 3.8 4.21662 3.8 4.21316 3.8C 4.20969 3.8 4.20622 3.8 4.20274 3.8C 4.19926 3.8 4.19578 3.8 4.19229 3.8C 4.1888 3.8 4.18531 3.8 4.18181 3.8C 4.17831 3.8 4.17481 3.8 4.1713 3.8C 4.16779 3.8 4.16427 3.8 4.16075 3.8C 4.15723 3.8 4.1537 3.8 4.15017 3.8C 4.14664 3.8 4.1431 3.8 4.13956 3.8C 4.13602 3.8 4.13247 3.8 4.12892 3.8C 4.12537 3.8 4.12181 3.8 4.11825 3.8C 4.11469 3.8 4.11112 3.8 4.10754 3.8C 4.10397 3.8 4.10039 3.8 4.09681 3.8C 4.09323 3.8 4.08964 3.8 4.08605 3.8C 4.08245 3.8 4.07886 3.8 4.07525 3.8C 4.07165 3.8 4.06804 3.8 4.06443 3.8C 4.06082 3.8 4.0572 3.8 4.05358 3.8C 4.04995 3.8 4.04633 3.8 4.04269 3.8C 4.03906 3.8 4.03542 3.8 4.03178 3.8C 4.02814 3.8 4.02449 3.8 4.02084 3.8C 4.01719 3.8 4.01353 3.8 4.00987 3.8C 4.00621 3.8 4.00254 3.8 3.99887 3.8C 3.9952 3.8 3.99153 3.8 3.98785 3.8C 3.98417 3.8 3.98048 3.8 3.97679 3.8C 3.97311 3.8 3.96941 3.8 3.96571 3.8C 3.96202 3.8 3.95831 3.8 3.95461 3.8C 3.9509 3.8 3.94719 3.8 3.94347 3.8C 3.93975 3.8 3.93603 3.8 3.93231 3.8C 3.92858 3.8 3.92485 3.8 3.92112 3.8C 3.91738 3.8 3.91365 3.8 3.9099 3.8C 3.90616 3.8 3.90241 3.8 3.89866 3.8C 3.89491 3.8 3.89116 3.8 3.8874 3.8C 3.88364 3.8 3.87987 3.8 3.8761 3.8C 3.87233 3.8 3.86856 3.8 3.86479 3.8C 3.86101 3.8 3.85723 3.8 3.85344 3.8C 3.84966 3.8 3.84587 3.8 3.84208 3.8C 3.83828 3.8 3.83448 3.8 3.83068 3.8C 3.82688 3.8 3.82308 3.8 3.81927 3.8C 3.81546 3.8 3.81164 3.8 3.80783 3.8C 3.80401 3.8 3.80019 3.8 3.79636 3.8C 3.79254 3.8 3.78871 3.8 3.78487 3.8C 3.78104 3.8 3.7772 3.8 3.77336 3.8C 3.76952 3.8 3.76568 3.8 3.76183 3.8C 3.75798 3.8 3.75413 3.8 3.75027 3.8C 3.74642 3.8 3.74256 3.8 3.73869 3.8C 3.73483 3.8 3.73096 3.8 3.72709 3.8C 3.72322 3.8 3.71934 3.8 3.71547 3.8C 3.71159 3.8 3.70771 3.8 3.70382 3.8C 3.69994 3.8 3.69605 3.8 3.69215 3.8C 3.68826 3.8 3.68437 3.8 3.68047 3.8C 3.67657 3.8 3.67266 3.8 3.66876 3.8C 3.66485 3.8 3.66094 3.8 3.65703 3.8C 3.65311 3.8 3.6492 3.8 3.64528 3.8C 3.64136 3.8 3.63743 3.8 3.6335 3.8C 3.62958 3.8 3.62565 3.8 3.62171 3.8C 3.61778 3.8 3.61384 3.8 3.6099 3.8C 3.60596 3.8 3.60202 3.8 3.59807 3.8C 3.59413 3.8 3.59018 3.8 3.58622 3.8C 3.58227 3.8 3.57831 3.8 3.57435 3.8C 3.57039 3.8 3.56643 3.8 3.56247 3.8C 3.5585 3.8 3.55453 3.8 3.55056 3.8C 3.54659 3.8 3.54261 3.8 3.53864 3.8C 3.53466 3.8 3.53068 3.8 3.52669 3.8C 3.52271 3.8 3.51872 3.8 3.51473 3.8C 3.51075 3.8 3.50675 3.8 3.50276 3.8C 3.49876 3.8 3.49476 3.8 3.49076 3.8C 3.48676 3.8 3.48276 3.8 3.47875 3.8C 3.47474 3.8 3.47073 3.8 3.46672 3.8C 3.46271 3.8 3.4587 3.8 3.45468 3.8C 3.45066 3.8 3.44664 3.8 3.44262 3.8C 3.43859 3.8 3.43457 3.8 3.43054 3.8C 3.42651 3.8 3.42248 3.8 3.41845 3.8C 3.41441 3.8 3.41038 3.8 3.40634 3.8C 3.4023 3.8 3.39826 3.8 3.39421 3.8C 3.39017 3.8 3.38612 3.8 3.38208 3.8C 3.37803 3.8 3.37398 3.8 3.36992 3.8C 3.36587 3.8 3.36181 3.8 3.35775 3.8C 3.3537 3.8 3.34963 3.8 3.34557 3.8C 3.34151 3.8 3.33744 3.8 3.33338 3.8C 3.32931 3.8 3.32524 3.8 3.32117 3.8C 3.31709 3.8 3.31302 3.8 3.30894 3.8C 3.30487 3.8 3.30079 3.8 3.29671 3.8C 3.29262 3.8 3.28854 3.8 3.28446 3.8C 3.28037 3.8 3.27628 3.8 3.27219 3.8C 3.2681 3.8 3.26401 3.8 3.25992 3.8C 3.25583 3.8 3.25173 3.8 3.24763 3.8C 3.24353 3.8 3.23943 3.8 3.23533 3.8C 3.23123 3.8 3.22713 3.8 3.22302 3.8C 3.21892 3.8 3.21481 3.8 3.2107 3.8C 3.20659 3.8 3.20248 3.8 3.19837 3.8C 3.19425 3.8 3.19014 3.8 3.18602 3.8C 3.18191 3.8 3.17779 3.8 3.17367 3.8C 3.16955 3.8 3.16543 3.8 3.1613 3.8C 3.15718 3.8 3.15305 3.8 3.14893 3.8C 3.1448 3.8 3.14067 3.8 3.13654 3.8C 3.13241 3.8 3.12828 3.8 3.12414 3.8C 3.12001 3.8 3.11588 3.8 3.11174 3.8C 3.1076 3.8 3.10346 3.8 3.09933 3.8C 3.09519 3.8 3.09104 3.8 3.0869 3.8C 3.08276 3.8 3.07862 3.8 3.07447 3.8C 3.07032 3.8 3.06618 3.8 3.06203 3.8C 3.05788 3.8 3.05373 3.8 3.04958 3.8C 3.04543 3.8 3.04128 3.8 3.03712 3.8C 3.03297 3.8 3.02882 3.8 3.02466 3.8C 3.0205 3.8 3.01635 3.8 3.01219 3.8C 3.00803 3.8 3.00387 3.8 2.99971 3.8C 2.99555 3.8 2.99139 3.8 2.98722 3.8C 2.98306 3.8 2.9789 3.8 2.97473 3.8C 2.97057 3.8 2.9664 3.8 2.96223 3.8C 2.95807 3.8 2.9539 3.8 2.94973 3.8C 2.94556 3.8 2.94139 3.8 2.93722 3.8C 2.93305 3.8 2.92887 3.8 2.9247 3.8C 2.92053 3.8 2.91635 3.8 2.91218 3.8C 2.908 3.8 2.90383 3.8 2.89965 3.8C 2.89547 3.8 2.8913 3.8 2.88712 3.8C 2.88294 3.8 2.87876 3.8 2.87458 3.8C 2.8704 3.8 2.86622 3.8 2.86204 3.8C 2.85786 3.8 2.85368 3.8 2.84949 3.8C 2.84531 3.8 2.84113 3.8 2.83694 3.8C 2.83276 3.8 2.82858 3.8 2.82439 3.8C 2.82021 3.8 2.81602 3.8 2.81183 3.8C 2.80765 3.8 2.80346 3.8 2.79927 3.8C 2.79509 3.8 2.7909 3.8 2.78671 3.8C 2.78252 3.8 2.77833 3.8 2.77415 3.8C 2.76996 3.8 2.76577 3.8 2.76158 3.8C 2.75739 3.8 2.7532 3.8 2.74901 3.8C 2.74482 3.8 2.74063 3.8 2.73644 3.8C 2.73224 3.8 2.72805 3.8 2.72386 3.8C 2.71967 3.8 2.71548 3.8 2.71129 3.8C 2.7071 3.8 2.7029 3.8 2.69871 3.8C 2.69452 3.8 2.69033 3.8 2.68613 3.8C 2.68194 3.8 2.67775 3.8 2.67356 3.8C 2.66936 3.8 2.66517 3.8 2.66098 3.8C 2.65678 3.8 2.65259 3.8 2.6484 3.8C 2.64421 3.8 2.64001 3.8 2.63582 3.8C 2.63163 3.8 2.62744 3.8 2.62324 3.8C 2.61905 3.8 2.61486 3.8 2.61067 3.8C 2.60647 3.8 2.60228 3.8 2.59809 3.8C 2.5939 3.8 2.5897 3.8 2.58551 3.8C 2.58132 3.8 2.57713 3.8 2.57294 3.8C 2.56875 3.8 2.56456 3.8 2.56037 3.8C 2.55618 3.8 2.55199 3.8 2.5478 3.8C 2.54361 3.8 2.53942 3.8 2.53523 3.8C 2.53104 3.8 2.52685 3.8 2.52266 3.8C 2.51847 3.8 2.51428 3.8 2.5101 3.8C 2.50591 3.8 2.50172 3.8 2.49754 3.8C 2.49335 3.8 2.48916 3.8 2.48498 3.8C 2.48079 3.8 2.47661 3.8 2.47242 3.8C 2.46824 3.8 2.46406 3.8 2.45987 3.8C 2.45569 3.8 2.45151 3.8 2.44733 3.8C 2.44315 3.8 2.43896 3.8 2.43478 3.8C 2.4306 3.8 2.42642 3.8 2.42225 3.8C 2.41807 3.8 2.41389 3.8 2.40971 3.8C 2.40553 3.8 2.40136 3.8 2.39718 3.8C 2.39301 3.8 2.38883 3.8 2.38466 3.8C 2.38049 3.8 2.37631 3.8 2.37214 3.8C 2.36797 3.8 2.3638 3.8 2.35963 3.8C 2.35546 3.8 2.35129 3.8 2.34712 3.8C 2.34295 3.8 2.33879 3.8 2.33462 3.8C 2.33045 3.8 2.32629 3.8 2.32213 3.8C 2.31796 3.8 2.3138 3.8 2.30964 3.8C 2.30548 3.8 2.30132 3.8 2.29716 3.8C 2.293 3.8 2.28884 3.8 2.28468 3.8C 2.28053 3.8 2.27637 3.8 2.27222 3.8C 2.26806 3.8 2.26391 3.8 2.25976 3.8C 2.25561 3.8 2.25146 3.8 2.24731 3.8C 2.24316 3.8 2.23901 3.8 2.23486 3.8C 2.23072 3.8 2.22657 3.8 2.22243 3.8C 2.21829 3.8 2.21414 3.8 2.21 3.8C 2.20586 3.8 2.20172 3.8 2.19759 3.8C 2.19345 3.8 2.18931 3.8 2.18518 3.8C 2.18104 3.8 2.17691 3.8 2.17278 3.8C 2.16865 3.8 2.16452 3.8 2.16039 3.8C 2.15626 3.8 2.15214 3.8 2.14801 3.8C 2.14389 3.8 2.13977 3.8 2.13564 3.8C 2.13152 3.8 2.1274 3.8 2.12329 3.8C 2.11917 3.8 2.11505 3.8 2.11094 3.8C 2.10682 3.8 2.10271 3.8 2.0986 3.8C 2.09449 3.8 2.09038 3.8 2.08628 3.8C 2.08217 3.8 2.07806 3.8 2.07396 3.8C 2.06986 3.8 2.06576 3.8 2.06166 3.8C 2.05756 3.8 2.05346 3.8 2.04937 3.8C 2.04527 3.8 2.04118 3.8 2.03709 3.8C 2.033 3.8 2.02891 3.8 2.02482 3.8C 2.02074 3.8 2.01665 3.8 2.01257 3.8C 2.00849 3.8 2.00441 3.8 2.00033 3.8C 1.99625 3.8 1.99218 3.8 1.9881 3.8C 1.98403 3.8 1.97996 3.8 1.97589 3.8C 1.97182 3.8 1.96775 3.8 1.96369 3.8C 1.95962 3.8 1.95556 3.8 1.9515 3.8C 1.94744 3.8 1.94338 3.8 1.93933 3.8C 1.93527 3.8 1.93122 3.8 1.92717 3.8C 1.92312 3.8 1.91907 3.8 1.91503 3.8C 1.91098 3.8 1.90694 3.8 1.9029 3.8C 1.89886 3.8 1.89482 3.8 1.89079 3.8C 1.88675 3.8 1.88272 3.8 1.87869 3.8C 1.87466 3.8 1.87063 3.8 1.86661 3.8C 1.86258 3.8 1.85856 3.8 1.85454 3.8C 1.85052 3.8 1.84651 3.8 1.84249 3.8C 1.83848 3.8 1.83447 3.8 1.83046 3.8C 1.82645 3.8 1.82244 3.8 1.81844 3.8C 1.81444 3.8 1.81044 3.8 1.80644 3.8C 1.80244 3.8 1.79845 3.8 1.79446 3.8C 1.79047 3.8 1.78648 3.8 1.78249 3.8C 1.77851 3.8 1.77453 3.8 1.77055 3.8C 1.76657 3.8 1.76259 3.8 1.75862 3.8C 1.75464 3.8 1.75067 3.8 1.7467 3.8C 1.74274 3.8 1.73877 3.8 1.73481 3.8C 1.73085 3.8 1.72689 3.8 1.72294 3.8C 1.71898 3.8 1.71503 3.8 1.71108 3.8C 1.70713 3.8 1.70319 3.8 1.69925 3.8C 1.6953 3.8 1.69136 3.8 1.68743 3.8C 1.68349 3.8 1.67956 3.8 1.67563 3.8C 1.6717 3.8 1.66778 3.8 1.66386 3.8C 1.65993 3.8 1.65601 3.8 1.6521 3.8C 1.64818 3.8 1.64427 3.8 1.64036 3.8C 1.63645 3.8 1.63255 3.8 1.62865 3.8C 1.62474 3.8 1.62085 3.8 1.61695 3.8C 1.61306 3.8 1.60917 3.8 1.60528 3.8C 1.60139 3.8 1.59751 3.8 1.59363 3.8C 1.58975 3.8 1.58587 3.8 1.582 3.8C 1.57812 3.8 1.57425 3.8 1.57039 3.8C 1.56652 3.8 1.56266 3.8 1.5588 3.8C 1.55494 3.8 1.55109 3.8 1.54724 3.8C 1.54339 3.8 1.53954 3.8 1.5357 3.8C 1.53185 3.8 1.52801 3.8 1.52418 3.8C 1.52034 3.8 1.51651 3.8 1.51268 3.8C 1.50885 3.8 1.50503 3.8 1.50121 3.8C 1.49739 3.8 1.49358 3.8 1.48976 3.8C 1.48595 3.8 1.48214 3.8 1.47834 3.8C 1.47454 3.8 1.47074 3.8 1.46694 3.8C 1.46314 3.8 1.45935 3.8 1.45557 3.8C 1.45178 3.8 1.44799 3.8 1.44421 3.8C 1.44044 3.8 1.43666 3.8 1.43289 3.8C 1.42912 3.8 1.42535 3.8 1.42159 3.8C 1.41783 3.8 1.41407 3.8 1.41031 3.8C 1.40656 3.8 1.40281 3.8 1.39907 3.8C 1.39532 3.8 1.39158 3.8 1.38784 3.8C 1.38411 3.8 1.38037 3.8 1.37665 3.8C 1.37292 3.8 1.36919 3.8 1.36548 3.8C 1.36176 3.8 1.35804 3.8 1.35433 3.8C 1.35062 3.8 1.34692 3.8 1.34322 3.8C 1.33951 3.8 1.33582 3.8 1.33213 3.8C 1.32843 3.8 1.32475 3.8 1.32106 3.8C 1.31738 3.8 1.3137 3.8 1.31003 3.8C 1.30636 3.8 1.30269 3.8 1.29902 3.8C 1.29536 3.8 1.2917 3.8 1.28805 3.8C 1.28439 3.8 1.28074 3.8 1.2771 3.8C 1.27345 3.8 1.26981 3.8 1.26618 3.8C 1.26254 3.8 1.25891 3.8 1.25529 3.8C 1.25166 3.8 1.24804 3.8 1.24442 3.8C 1.24081 3.8 1.2372 3.8 1.23359 3.8C 1.22998 3.8 1.22638 3.8 1.22279 3.8C 1.21919 3.8 1.2156 3.8 1.21201 3.8C 1.20843 3.8 1.20485 3.8 1.20127 3.8C 1.1977 3.8 1.19412 3.8 1.19056 3.8C 1.18699 3.8 1.18343 3.8 1.17988 3.8C 1.17632 3.8 1.17277 3.8 1.16923 3.8C 1.16568 3.8 1.16214 3.8 1.15861 3.8C 1.15507 3.8 1.15154 3.8 1.14802 3.8C 1.1445 3.8 1.14098 3.8 1.13746 3.8C 1.13395 3.8 1.13044 3.8 1.12694 3.8C 1.12344 3.8 1.11994 3.8 1.11645 3.8C 1.11296 3.8 1.10947 3.8 1.10599 3.8C 1.10251 3.8 1.09903 3.8 1.09556 3.8C 1.09209 3.8 1.08863 3.8 1.08517 3.8C 1.08171 3.8 1.07826 3.8 1.07481 3.8C 1.07136 3.8 1.06792 3.8 1.06448 3.8C 1.06104 3.8 1.05761 3.8 1.05419 3.8C 1.05076 3.8 1.04734 3.8 1.04393 3.8C 1.04052 3.8 1.03711 3.8 1.03371 3.8C 1.0303 3.8 1.02691 3.8 1.02351 3.8C 1.02012 3.8 1.01674 3.8 1.01336 3.8C 1.00998 3.8 1.00661 3.8 1.00324 3.8C 0.999872 3.8 0.99651 3.8 0.993154 3.8C 0.989799 3.8 0.986449 3.8 0.983105 3.8C 0.979761 3.8 0.976423 3.8 0.973091 3.8C 0.969759 3.8 0.966434 3.8 0.963114 3.8C 0.959794 3.8 0.95648 3.8 0.953172 3.8C 0.949865 3.8 0.946563 3.8 0.943268 3.8C 0.939972 3.8 0.936683 3.8 0.933399 3.8C 0.930116 3.8 0.926839 3.8 0.923568 3.8C 0.920298 3.8 0.917033 3.8 0.913775 3.8C 0.910516 3.8 0.907264 3.8 0.904019 3.8C 0.900773 3.8 0.897533 3.8 0.8943 3.8C 0.891067 3.8 0.88784 3.8 0.88462 3.8C 0.8814 3.8 0.878186 3.8 0.874978 3.8C 0.87177 3.8 0.868569 3.8 0.865374 3.8C 0.86218 3.8 0.858992 3.8 0.85581 3.8C 0.852628 3.8 0.849453 3.8 0.846284 3.8C 0.843116 3.8 0.839953 3.8 0.836798 3.8C 0.833642 3.8 0.830493 3.8 0.827351 3.8C 0.824209 3.8 0.821073 3.8 0.817944 3.8C 0.814815 3.8 0.811693 3.8 0.808577 3.8C 0.805462 3.8 0.802353 3.8 0.799251 3.8C 0.796148 3.8 0.793053 3.8 0.789965 3.8C 0.786876 3.8 0.783794 3.8 0.780719 3.8C 0.777644 3.8 0.774576 3.8 0.771515 3.8C 0.768454 3.8 0.7654 3.8 0.762352 3.8C 0.759305 3.8 0.756265 3.8 0.753231 3.8C 0.750198 3.8 0.747171 3.8 0.744152 3.8C 0.741132 3.8 0.73812 3.8 0.735114 3.8C 0.732109 3.8 0.72911 3.8 0.726119 3.8C 0.723128 3.8 0.720144 3.8 0.717167 3.8C 0.71419 3.8 0.71122 3.8 0.708257 3.8C 0.705294 3.8 0.702339 3.8 0.69939 3.8C 0.696442 3.8 0.693501 3.8 0.690567 3.8C 0.687633 3.8 0.684707 3.8 0.681787 3.8C 0.678868 3.8 0.675956 3.8 0.673051 3.8C 0.670147 3.8 0.66725 3.8 0.66436 3.8C 0.66147 3.8 0.658587 3.8 0.655712 3.8C 0.652837 3.8 0.649969 3.8 0.647109 3.8C 0.644249 3.8 0.641396 3.8 0.638551 3.8C 0.635706 3.8 0.632868 3.8 0.630038 3.8C 0.627208 3.8 0.624385 3.8 0.621571 3.8C 0.618756 3.8 0.615948 3.8 0.613148 3.8C 0.610349 3.8 0.607557 3.8 0.604772 3.8C 0.601988 3.8 0.599211 3.8 0.596442 3.8C 0.593673 3.8 0.590912 3.8 0.588158 3.8C 0.585405 3.8 0.582659 3.8 0.579921 3.8C 0.577183 3.8 0.574453 3.8 0.571731 3.8C 0.569008 3.8 0.566294 3.8 0.563587 3.8C 0.560881 3.8 0.558182 3.8 0.555492 3.8C 0.552801 3.8 0.550118 3.8 0.547443 3.8C 0.544768 3.8 0.542102 3.8 0.539443 3.8C 0.536784 3.8 0.534133 3.8 0.53149 3.8C 0.528848 3.8 0.526213 3.8 0.523586 3.8C 0.52096 3.8 0.518341 3.8 0.515731 3.8C 0.513121 3.8 0.510518 3.8 0.507924 3.8C 0.50533 3.8 0.502745 3.8 0.500167 3.8C 0.497589 3.8 0.49502 3.8 0.492459 3.8C 0.489898 3.8 0.487345 3.8 0.4848 3.8C 0.482256 3.8 0.47972 3.8 0.477192 3.8C 0.474664 3.8 0.472144 3.8 0.469633 3.8C 0.467122 3.8 0.464619 3.8 0.462125 3.8C 0.459631 3.8 0.457145 3.8 0.454668 3.8C 0.45219 3.8 0.449721 3.8 0.447261 3.8C 0.444801 3.8 0.442349 3.8 0.439905 3.8C 0.437462 3.8 0.435027 3.8 0.432601 3.8C 0.430175 3.8 0.427758 3.8 0.425349 3.8C 0.42294 3.8 0.420539 3.8 0.418148 3.8C 0.415756 3.8 0.413374 3.8 0.410999 3.8C 0.408625 3.8 0.40626 3.8 0.403903 3.8C 0.401547 3.8 0.399199 3.8 0.39686 3.8C 0.394521 3.8 0.39219 3.8 0.389869 3.8C 0.387548 3.8 0.385235 3.8 0.382931 3.8C 0.380628 3.8 0.378333 3.8 0.376047 3.8C 0.373761 3.8 0.371485 3.8 0.369217 3.8C 0.366949 3.8 0.36469 3.8 0.36244 3.8C 0.36019 3.8 0.357949 3.8 0.355717 3.8C 0.353486 3.8 0.351263 3.8 0.349049 3.8C 0.346836 3.8 0.344631 3.8 0.342436 3.8C 0.34024 3.8 0.338054 3.8 0.335877 3.8C 0.3337 3.8 0.331532 3.8 0.329374 3.8C 0.327215 3.8 0.325066 3.8 0.322926 3.8C 0.320785 3.8 0.318655 3.8 0.316533 3.8C 0.314412 3.8 0.312299 3.8 0.310197 3.8C 0.308094 3.8 0.306 3.8 0.303916 3.8C 0.301832 3.8 0.299757 3.8 0.297692 3.8C 0.295627 3.8 0.293571 3.8 0.291525 3.8C 0.289478 3.8 0.287442 3.8 0.285414 3.8C 0.283387 3.8 0.281369 3.8 0.279361 3.8C 0.277353 3.8 0.275354 3.8 0.273365 3.8C 0.271376 3.8 0.269396 3.8 0.267427 3.8C 0.265457 3.8 0.263497 3.8 0.261546 3.8C 0.259596 3.8 0.257655 3.8 0.255724 3.8C 0.253793 3.8 0.251872 3.8 0.24996 3.8C 0.248049 3.8 0.246147 3.8 0.244255 3.8C 0.242363 3.8 0.240481 3.8 0.238609 3.8C 0.236737 3.8 0.234874 3.8 0.233022 3.8C 0.231169 3.8 0.229327 3.8 0.227494 3.8C 0.225662 3.8 0.223839 3.8 0.222026 3.8C 0.220213 3.8 0.218411 3.8 0.216618 3.8C 0.214825 3.8 0.213043 3.8 0.21127 3.8C 0.209498 3.8 0.207735 3.8 0.205983 3.8C 0.20423 3.8 0.202488 3.8 0.200756 3.8C 0.199024 3.8 0.197302 3.8 0.19559 3.8C 0.193878 3.8 0.192177 3.8 0.190485 3.8C 0.188794 3.8 0.187113 3.8 0.185442 3.8C 0.183771 3.8 0.182111 3.8 0.18046 3.8C 0.17881 3.8 0.17717 3.8 0.175541 3.8C 0.173911 3.8 0.172292 3.8 0.170683 3.8C 0.169074 3.8 0.167476 3.8 0.165888 3.8C 0.1643 3.8 0.162722 3.8 0.161155 3.8C 0.159588 3.8 0.158032 3.8 0.156486 3.8C 0.15494 3.8 0.153405 3.8 0.15188 3.8C 0.150355 3.8 0.148841 3.8 0.147337 3.8C 0.145833 3.8 0.14434 3.8 0.142858 3.8C 0.141375 3.8 0.139903 3.8 0.138442 3.8C 0.136981 3.8 0.135531 3.8 0.134091 3.8C 0.132652 3.8 0.131223 3.8 0.129805 3.8C 0.128387 3.8 0.126979 3.8 0.125583 3.8C 0.124186 3.8 0.122801 3.8 0.121426 3.8C 0.120051 3.8 0.118687 3.8 0.117334 3.8C 0.115981 3.8 0.114639 3.8 0.113308 3.8C 0.111976 3.8 0.110656 3.8 0.109347 3.8C 0.108038 3.8 0.106739 3.8 0.105452 3.8C 0.104165 3.8 0.102889 3.8 0.101624 3.8C 0.100359 3.8 0.0991046 3.8 0.0978617 3.8C 0.0966188 3.8 0.095387 3.8 0.0941664 3.8C 0.0929457 3.8 0.0917362 3.8 0.090538 3.8C 0.0893397 3.8 0.0881526 3.8 0.0869768 3.8C 0.0858009 3.8 0.0846364 3.8 0.083483 3.8C 0.0823297 3.8 0.0811877 3.8 0.080057 3.8C 0.0789263 3.8 0.077807 3.8 0.076699 3.8C 0.075591 3.8 0.0744943 3.8 0.0734091 3.8C 0.0723239 3.8 0.0712501 3.8 0.0701877 3.8C 0.0691253 3.8 0.0680744 3.8 0.067035 3.8C 0.0659956 3.8 0.0649677 3.8 0.0639513 3.8C 0.0629349 3.8 0.0619301 3.8 0.0609368 3.8C 0.0599435 3.8 0.0589619 3.8 0.0579918 3.8C 0.0570217 3.8 0.0560633 3.8 0.0551165 3.8C 0.0541697 3.8 0.0532346 3.8 0.0523111 3.8C 0.0513877 3.8 0.050476 3.8 0.049576 3.8C 0.048676 3.8 0.0477878 3.8 0.0469114 3.8C 0.0460349 3.8 0.0451703 3.8 0.0443174 3.8C 0.0434646 3.8 0.0426236 3.8 0.0417945 3.8C 0.0409654 3.8 0.0401481 3.8 0.0393428 3.8C 0.0385374 3.8 0.037744 3.8 0.0369625 3.8C 0.0361811 3.8 0.0354115 3.8 0.034654 3.8C 0.0338965 3.8 0.033151 3.8 0.0324175 3.8C 0.031684 3.8 0.0309626 3.8 0.0302532 3.8C 0.0295438 3.8 0.0288465 3.8 0.0281614 3.8C 0.0274762 3.8 0.0268032 3.8 0.0261423 3.8C 0.0254814 3.8 0.0248327 3.8 0.0241962 3.8C 0.0235597 3.8 0.0229354 3.8 0.0223234 3.8C 0.0217113 3.8 0.0211115 3.8 0.020524 3.8C 0.0199365 3.8 0.0193613 3.8 0.0187984 3.8C 0.0182355 3.8 0.0176849 3.8 0.0171468 3.8C 0.0166086 3.8 0.0160828 3.8 0.0155694 3.8C 0.015056 3.8 0.014555 3.8 0.0140665 3.8C 0.013578 3.8 0.0131019 3.8 0.0126383 3.8C 0.0121748 3.8 0.0117237 3.8 0.0112852 3.8C 0.0108467 3.8 0.0104207 3.8 0.0100073 3.8C 0.0095939 3.8 0.00919309 3.8 0.00880491 3.8C 0.00841672 3.8 0.00804116 3.8 0.00767826 3.8C 0.00731537 3.8 0.00696514 3.8 0.00662762 3.8C 0.0062901 3.8 0.0059653 3.8 0.00565324 3.8C 0.00534118 3.8 0.00504187 3.8 0.00475536 3.8C 0.00446885 3.8 0.00419513 3.8 0.00393424 3.8C 0.00367335 3.8 0.0034253 3.8 0.00319013 3.8C 0.00295495 3.8 0.00273265 3.8 0.00252328 3.8C 0.0023139 3.8 0.00211744 3.8 0.00193394 3.8C 0.00175044 3.8 0.0015799 3.8 0.00142236 3.8C 0.00126482 3.8 0.00112029 3.8 0.000988797 3.8C 0.000857306 3.8 0.00073886 3.8 0.0006335 3.8C 0.00052814 3.8 0.000435867 3.8 0.000356721 3.8C 0.000277575 3.8 0.000211558 3.8 0.00015871 3.8C 0.000105863 3.8 6.61851e-05 3.8 3.97195e-05 3.8C 1.32538e-05 3.8 0 3.8 0 4.8ZM 4.8 5.8C 6.67788 5.8 8.2 4.27788 8.2 2.4L 6.2 2.4C 6.2 3.17332 5.57332 3.8 4.8 3.8L 4.8 5.8Z"/>
<path id="path4_stroke" d="M 5.8 0L 5.8 -1L 3.8 -1L 3.8 0L 5.8 0ZM 4.8 19.2L 4.8 20.2L 5.8 20.2L 5.8 19.2L 4.8 19.2ZM 0 19.2L -1 19.2L -1 20.2L 0 20.2L 0 19.2ZM 1 0L 1 -1L -1 -1L -1 0L 1 0ZM 3.8 0L 3.8 19.2L 5.8 19.2L 5.8 0L 3.8 0ZM 4.8 18.2L 0 18.2L 0 20.2L 4.8 20.2L 4.8 18.2ZM 1 19.2L 1 0L -1 0L -1 19.2L 1 19.2Z"/>
</defs>
</svg>
